<?xml version="1.0" encoding="UTF-8" standalone="no"?>
<!DOCTYPE svg PUBLIC "-//W3C//DTD SVG 1.1//EN"
 "http://www.w3.org/Graphics/SVG/1.1/DTD/svg11.dtd">
<!-- Generated by graphviz version 2.40.1 (20161225.0304)
 -->
<!-- Title: git history Pages: 1 -->
<svg width="440pt" height="486pt"
 viewBox="0.00 0.00 439.50 486.00" xmlns="http://www.w3.org/2000/svg" xmlns:xlink="http://www.w3.org/1999/xlink">
<g id="graph0" class="graph" transform="scale(1 1) rotate(0) translate(4 482)">
<title>git history</title>
<polygon fill="#ffffff" stroke="transparent" points="-4,4 -4,-482 435.5,-482 435.5,4 -4,4"/>
<!-- master -->
<g id="node1" class="node">
<title>master</title>
<path fill="#ffb6c1" stroke="#8b3a3a" d="M42,-259C42,-259 12,-259 12,-259 6,-259 0,-253 0,-247 0,-247 0,-235 0,-235 0,-229 6,-223 12,-223 12,-223 42,-223 42,-223 48,-223 54,-229 54,-235 54,-235 54,-247 54,-247 54,-253 48,-259 42,-259"/>
<text text-anchor="middle" x="27" y="-237.3" font-family="Times,serif" font-size="14.00" fill="#000000">master</text>
</g>
<!-- a380b -->
<g id="node2" class="node">
<title>a380b</title>
<path fill="#c6e2ff" stroke="#4a708b" d="M209.5,-186C209.5,-186 134.5,-186 134.5,-186 128.5,-186 122.5,-180 122.5,-174 122.5,-174 122.5,-160 122.5,-160 122.5,-154 128.5,-148 134.5,-148 134.5,-148 209.5,-148 209.5,-148 215.5,-148 221.5,-154 221.5,-160 221.5,-160 221.5,-174 221.5,-174 221.5,-180 215.5,-186 209.5,-186"/>
<text text-anchor="middle" x="172" y="-170.8" font-family="Times,serif" font-size="14.00" fill="#000000">a380b</text>
<text text-anchor="middle" x="172" y="-155.8" font-family="Times,serif" font-size="14.00" fill="#000000">Finishing login</text>
</g>
<!-- master&#45;&gt;a380b -->
<g id="edge1" class="edge">
<title>master&#45;&gt;a380b</title>
<path fill="none" stroke="#000000" d="M54.099,-226.6298C57.0983,-225.0596 60.1112,-223.491 63,-222 83.1524,-211.5988 105.4992,-200.2847 124.686,-190.6376"/>
<polygon fill="#000000" stroke="#000000" points="126.4619,-193.6625 133.8277,-186.047 123.3205,-187.4069 126.4619,-193.6625"/>
</g>
<!-- b4c37 -->
<g id="node9" class="node">
<title>b4c37</title>
<path fill="#c6e2ff" stroke="#4a708b" d="M205.5,-112C205.5,-112 138.5,-112 138.5,-112 132.5,-112 126.5,-106 126.5,-100 126.5,-100 126.5,-86 126.5,-86 126.5,-80 132.5,-74 138.5,-74 138.5,-74 205.5,-74 205.5,-74 211.5,-74 217.5,-80 217.5,-86 217.5,-86 217.5,-100 217.5,-100 217.5,-106 211.5,-112 205.5,-112"/>
<text text-anchor="middle" x="172" y="-96.8" font-family="Times,serif" font-size="14.00" fill="#000000">b4c37</text>
<text text-anchor="middle" x="172" y="-81.8" font-family="Times,serif" font-size="14.00" fill="#000000">Starting login</text>
</g>
<!-- a380b&#45;&gt;b4c37 -->
<g id="edge6" class="edge">
<title>a380b&#45;&gt;b4c37</title>
<path fill="none" stroke="#000000" d="M172,-147.9432C172,-140.1493 172,-130.9538 172,-122.3381"/>
<polygon fill="#000000" stroke="#000000" points="175.5001,-122.2494 172,-112.2495 168.5001,-122.2495 175.5001,-122.2494"/>
</g>
<!-- HEAD -->
<g id="node3" class="node">
<title>HEAD</title>
<path fill="#fff68f" stroke="#cdbe70" d="M312,-478C312,-478 282,-478 282,-478 276,-478 270,-472 270,-466 270,-466 270,-454 270,-454 270,-448 276,-442 282,-442 282,-442 312,-442 312,-442 318,-442 324,-448 324,-454 324,-454 324,-466 324,-466 324,-472 318,-478 312,-478"/>
<text text-anchor="middle" x="297" y="-456.3" font-family="Times,serif" font-size="14.00" fill="#000000">HEAD</text>
</g>
<!-- profile -->
<g id="node4" class="node">
<title>profile</title>
<path fill="#ffb6c1" stroke="#8b3a3a" d="M312,-406C312,-406 282,-406 282,-406 276,-406 270,-400 270,-394 270,-394 270,-382 270,-382 270,-376 276,-370 282,-370 282,-370 312,-370 312,-370 318,-370 324,-376 324,-382 324,-382 324,-394 324,-394 324,-400 318,-406 312,-406"/>
<text text-anchor="middle" x="297" y="-384.3" font-family="Times,serif" font-size="14.00" fill="#000000">profile</text>
</g>
<!-- HEAD&#45;&gt;profile -->
<g id="edge2" class="edge">
<title>HEAD&#45;&gt;profile</title>
<path fill="none" stroke="#000000" d="M297,-441.8314C297,-434.131 297,-424.9743 297,-416.4166"/>
<polygon fill="#000000" stroke="#000000" points="300.5001,-416.4132 297,-406.4133 293.5001,-416.4133 300.5001,-416.4132"/>
</g>
<!-- f1234 -->
<g id="node12" class="node">
<title>f1234</title>
<path fill="#c6e2ff" stroke="#4a708b" d="M383.5,-334C383.5,-334 300.5,-334 300.5,-334 294.5,-334 288.5,-328 288.5,-322 288.5,-322 288.5,-308 288.5,-308 288.5,-302 294.5,-296 300.5,-296 300.5,-296 383.5,-296 383.5,-296 389.5,-296 395.5,-302 395.5,-308 395.5,-308 395.5,-322 395.5,-322 395.5,-328 389.5,-334 383.5,-334"/>
<text text-anchor="middle" x="342" y="-318.8" font-family="Times,serif" font-size="14.00" fill="#000000">f1234</text>
<text text-anchor="middle" x="342" y="-303.8" font-family="Times,serif" font-size="14.00" fill="#000000">Finishing profile</text>
</g>
<!-- profile&#45;&gt;f1234 -->
<g id="edge13" class="edge">
<title>profile&#45;&gt;f1234</title>
<path fill="none" stroke="#000000" d="M308.1236,-369.9551C313.1598,-361.7852 319.2279,-351.9413 324.8287,-342.8557"/>
<polygon fill="#000000" stroke="#000000" points="327.95,-344.4621 330.2181,-334.1128 321.9912,-340.7888 327.95,-344.4621"/>
</g>
<!-- origin/master -->
<g id="node5" class="node">
<title>origin/master</title>
<path fill="#ffb6c1" stroke="#8b3a3a" d="M149.5,-259C149.5,-259 84.5,-259 84.5,-259 78.5,-259 72.5,-253 72.5,-247 72.5,-247 72.5,-235 72.5,-235 72.5,-229 78.5,-223 84.5,-223 84.5,-223 149.5,-223 149.5,-223 155.5,-223 161.5,-229 161.5,-235 161.5,-235 161.5,-247 161.5,-247 161.5,-253 155.5,-259 149.5,-259"/>
<text text-anchor="middle" x="117" y="-237.3" font-family="Times,serif" font-size="14.00" fill="#000000">origin/master</text>
</g>
<!-- origin/master&#45;&gt;a380b -->
<g id="edge3" class="edge">
<title>origin/master&#45;&gt;a380b</title>
<path fill="none" stroke="#000000" d="M130.5955,-222.7079C136.9924,-214.1011 144.7516,-203.6615 151.816,-194.1566"/>
<polygon fill="#000000" stroke="#000000" points="154.6375,-196.2278 157.7937,-186.114 149.0193,-192.0521 154.6375,-196.2278"/>
</g>
<!-- origin -->
<g id="node6" class="node">
<title>origin</title>
<path fill="#fff68f" stroke="#cdbe70" d="M402,-478C402,-478 372,-478 372,-478 366,-478 360,-472 360,-466 360,-466 360,-454 360,-454 360,-448 366,-442 372,-442 372,-442 402,-442 402,-442 408,-442 414,-448 414,-454 414,-454 414,-466 414,-466 414,-472 408,-478 402,-478"/>
<text text-anchor="middle" x="387" y="-456.3" font-family="Times,serif" font-size="14.00" fill="#000000">origin</text>
</g>
<!-- origin/profile -->
<g id="node7" class="node">
<title>origin/profile</title>
<path fill="#ffb6c1" stroke="#8b3a3a" d="M419.5,-406C419.5,-406 354.5,-406 354.5,-406 348.5,-406 342.5,-400 342.5,-394 342.5,-394 342.5,-382 342.5,-382 342.5,-376 348.5,-370 354.5,-370 354.5,-370 419.5,-370 419.5,-370 425.5,-370 431.5,-376 431.5,-382 431.5,-382 431.5,-394 431.5,-394 431.5,-400 425.5,-406 419.5,-406"/>
<text text-anchor="middle" x="387" y="-384.3" font-family="Times,serif" font-size="14.00" fill="#000000">origin/profile</text>
</g>
<!-- origin&#45;&gt;origin/profile -->
<g id="edge4" class="edge">
<title>origin&#45;&gt;origin/profile</title>
<path fill="none" stroke="#000000" d="M387,-441.8314C387,-434.131 387,-424.9743 387,-416.4166"/>
<polygon fill="#000000" stroke="#000000" points="390.5001,-416.4132 387,-406.4133 383.5001,-416.4133 390.5001,-416.4132"/>
</g>
<!-- origin/profile&#45;&gt;f1234 -->
<g id="edge11" class="edge">
<title>origin/profile&#45;&gt;f1234</title>
<path fill="none" stroke="#000000" d="M375.8764,-369.9551C370.8402,-361.7852 364.7721,-351.9413 359.1713,-342.8557"/>
<polygon fill="#000000" stroke="#000000" points="362.0088,-340.7888 353.7819,-334.1128 356.05,-344.4621 362.0088,-340.7888"/>
</g>
<!-- 76c16 -->
<g id="node8" class="node">
<title>76c16</title>
<path fill="#c6e2ff" stroke="#4a708b" d="M213.5,-38C213.5,-38 130.5,-38 130.5,-38 124.5,-38 118.5,-32 118.5,-26 118.5,-26 118.5,-12 118.5,-12 118.5,-6 124.5,0 130.5,0 130.5,0 213.5,0 213.5,0 219.5,0 225.5,-6 225.5,-12 225.5,-12 225.5,-26 225.5,-26 225.5,-32 219.5,-38 213.5,-38"/>
<text text-anchor="middle" x="172" y="-22.8" font-family="Times,serif" font-size="14.00" fill="#000000">76c16</text>
<text text-anchor="middle" x="172" y="-7.8" font-family="Times,serif" font-size="14.00" fill="#000000">Initiating project</text>
</g>
<!-- b4c37&#45;&gt;76c16 -->
<g id="edge5" class="edge">
<title>b4c37&#45;&gt;76c16</title>
<path fill="none" stroke="#000000" d="M172,-73.9432C172,-66.1493 172,-56.9538 172,-48.3381"/>
<polygon fill="#000000" stroke="#000000" points="175.5001,-48.2494 172,-38.2495 168.5001,-48.2495 175.5001,-48.2494"/>
</g>
<!-- 747bf -->
<g id="node10" class="node">
<title>747bf</title>
<path fill="#c6e2ff" stroke="#4a708b" d="M262,-260C262,-260 192,-260 192,-260 186,-260 180,-254 180,-248 180,-248 180,-234 180,-234 180,-228 186,-222 192,-222 192,-222 262,-222 262,-222 268,-222 274,-228 274,-234 274,-234 274,-248 274,-248 274,-254 268,-260 262,-260"/>
<text text-anchor="middle" x="227" y="-244.8" font-family="Times,serif" font-size="14.00" fill="#000000">747bf</text>
<text text-anchor="middle" x="227" y="-229.8" font-family="Times,serif" font-size="14.00" fill="#000000">Starting menu</text>
</g>
<!-- 747bf&#45;&gt;a380b -->
<g id="edge7" class="edge">
<title>747bf&#45;&gt;a380b</title>
<path fill="none" stroke="#000000" d="M212.8361,-221.9432C206.5978,-213.5497 199.1513,-203.5309 192.3359,-194.361"/>
<polygon fill="#000000" stroke="#000000" points="195.0814,-192.1876 186.307,-186.2495 189.4632,-196.3633 195.0814,-192.1876"/>
</g>
<!-- abcde -->
<g id="node11" class="node">
<title>abcde</title>
<path fill="#c6e2ff" stroke="#4a708b" d="M379.5,-260C379.5,-260 304.5,-260 304.5,-260 298.5,-260 292.5,-254 292.5,-248 292.5,-248 292.5,-234 292.5,-234 292.5,-228 298.5,-222 304.5,-222 304.5,-222 379.5,-222 379.5,-222 385.5,-222 391.5,-228 391.5,-234 391.5,-234 391.5,-248 391.5,-248 391.5,-254 385.5,-260 379.5,-260"/>
<text text-anchor="middle" x="342" y="-244.8" font-family="Times,serif" font-size="14.00" fill="#000000">abcde</text>
<text text-anchor="middle" x="342" y="-229.8" font-family="Times,serif" font-size="14.00" fill="#000000">Starting profile</text>
</g>
<!-- abcde&#45;&gt;a380b -->
<g id="edge8" class="edge">
<title>abcde&#45;&gt;a380b</title>
<path fill="none" stroke="#000000" d="M298.2208,-221.9432C275.9991,-212.2702 248.8181,-200.4385 225.3785,-190.2354"/>
<polygon fill="#000000" stroke="#000000" points="226.4919,-186.9028 215.926,-186.1207 223.6981,-193.3211 226.4919,-186.9028"/>
</g>
<!-- f1234&#45;&gt;abcde -->
<g id="edge9" class="edge">
<title>f1234&#45;&gt;abcde</title>
<path fill="none" stroke="#000000" d="M342,-295.9432C342,-288.1493 342,-278.9538 342,-270.3381"/>
<polygon fill="#000000" stroke="#000000" points="345.5001,-270.2494 342,-260.2495 338.5001,-270.2495 345.5001,-270.2494"/>
</g>
<!-- origin/menu -->
<g id="node13" class="node">
<title>origin/menu</title>
<path fill="#ffb6c1" stroke="#8b3a3a" d="M177.5,-333C177.5,-333 118.5,-333 118.5,-333 112.5,-333 106.5,-327 106.5,-321 106.5,-321 106.5,-309 106.5,-309 106.5,-303 112.5,-297 118.5,-297 118.5,-297 177.5,-297 177.5,-297 183.5,-297 189.5,-303 189.5,-309 189.5,-309 189.5,-321 189.5,-321 189.5,-327 183.5,-333 177.5,-333"/>
<text text-anchor="middle" x="148" y="-311.3" font-family="Times,serif" font-size="14.00" fill="#000000">origin/menu</text>
</g>
<!-- origin/menu&#45;&gt;747bf -->
<g id="edge10" class="edge">
<title>origin/menu&#45;&gt;747bf</title>
<path fill="none" stroke="#000000" d="M167.5281,-296.7079C177.0877,-287.7533 188.7651,-276.815 199.2333,-267.0093"/>
<polygon fill="#000000" stroke="#000000" points="201.689,-269.5047 206.5946,-260.114 196.9035,-264.3959 201.689,-269.5047"/>
</g>
<!-- menu -->
<g id="node14" class="node">
<title>menu</title>
<path fill="#ffb6c1" stroke="#8b3a3a" d="M250,-333C250,-333 220,-333 220,-333 214,-333 208,-327 208,-321 208,-321 208,-309 208,-309 208,-303 214,-297 220,-297 220,-297 250,-297 250,-297 256,-297 262,-303 262,-309 262,-309 262,-321 262,-321 262,-327 256,-333 250,-333"/>
<text text-anchor="middle" x="235" y="-311.3" font-family="Times,serif" font-size="14.00" fill="#000000">menu</text>
</g>
<!-- menu&#45;&gt;747bf -->
<g id="edge12" class="edge">
<title>menu&#45;&gt;747bf</title>
<path fill="none" stroke="#000000" d="M233.0225,-296.7079C232.1578,-288.7096 231.122,-279.1287 230.1552,-270.1859"/>
<polygon fill="#000000" stroke="#000000" points="233.621,-269.6798 229.0664,-260.114 226.6616,-270.4323 233.621,-269.6798"/>
</g>
</g>
</svg>
