<?xml version="1.0" encoding="UTF-8" standalone="no"?>
<!DOCTYPE svg PUBLIC "-//W3C//DTD SVG 1.1//EN"
 "http://www.w3.org/Graphics/SVG/1.1/DTD/svg11.dtd">
<!-- Generated by graphviz version 2.40.1 (20161225.0304)
 -->
<!-- Title: git history Pages: 1 -->
<svg width="407pt" height="486pt"
 viewBox="0.00 0.00 407.00 486.00" xmlns="http://www.w3.org/2000/svg" xmlns:xlink="http://www.w3.org/1999/xlink">
<g id="graph0" class="graph" transform="scale(1 1) rotate(0) translate(4 482)">
<title>git history</title>
<polygon fill="#ffffff" stroke="transparent" points="-4,4 -4,-482 403,-482 403,4 -4,4"/>
<!-- master -->
<g id="node1" class="node">
<title>master</title>
<path fill="#ffb6c1" stroke="#8b3a3a" d="M387,-406C387,-406 357,-406 357,-406 351,-406 345,-400 345,-394 345,-394 345,-382 345,-382 345,-376 351,-370 357,-370 357,-370 387,-370 387,-370 393,-370 399,-376 399,-382 399,-382 399,-394 399,-394 399,-400 393,-406 387,-406"/>
<text text-anchor="middle" x="372" y="-384.3" font-family="Times,serif" font-size="14.00" fill="#000000">master</text>
</g>
<!-- f1234 -->
<g id="node2" class="node">
<title>f1234</title>
<path fill="#c6e2ff" stroke="#4a708b" d="M341.5,-334C341.5,-334 258.5,-334 258.5,-334 252.5,-334 246.5,-328 246.5,-322 246.5,-322 246.5,-308 246.5,-308 246.5,-302 252.5,-296 258.5,-296 258.5,-296 341.5,-296 341.5,-296 347.5,-296 353.5,-302 353.5,-308 353.5,-308 353.5,-322 353.5,-322 353.5,-328 347.5,-334 341.5,-334"/>
<text text-anchor="middle" x="300" y="-318.8" font-family="Times,serif" font-size="14.00" fill="#000000">f1234</text>
<text text-anchor="middle" x="300" y="-303.8" font-family="Times,serif" font-size="14.00" fill="#000000">Finishing profile</text>
</g>
<!-- master&#45;&gt;f1234 -->
<g id="edge1" class="edge">
<title>master&#45;&gt;f1234</title>
<path fill="none" stroke="#000000" d="M354.2022,-369.9551C345.7246,-361.3597 335.4194,-350.9114 326.0803,-341.4426"/>
<polygon fill="#000000" stroke="#000000" points="328.3651,-338.7748 318.851,-334.1128 323.3813,-343.6903 328.3651,-338.7748"/>
</g>
<!-- abcde -->
<g id="node10" class="node">
<title>abcde</title>
<path fill="#c6e2ff" stroke="#4a708b" d="M331.5,-260C331.5,-260 256.5,-260 256.5,-260 250.5,-260 244.5,-254 244.5,-248 244.5,-248 244.5,-234 244.5,-234 244.5,-228 250.5,-222 256.5,-222 256.5,-222 331.5,-222 331.5,-222 337.5,-222 343.5,-228 343.5,-234 343.5,-234 343.5,-248 343.5,-248 343.5,-254 337.5,-260 331.5,-260"/>
<text text-anchor="middle" x="294" y="-244.8" font-family="Times,serif" font-size="14.00" fill="#000000">abcde</text>
<text text-anchor="middle" x="294" y="-229.8" font-family="Times,serif" font-size="14.00" fill="#000000">Starting profile</text>
</g>
<!-- f1234&#45;&gt;abcde -->
<g id="edge9" class="edge">
<title>f1234&#45;&gt;abcde</title>
<path fill="none" stroke="#000000" d="M298.4549,-295.9432C297.8229,-288.1493 297.0773,-278.9538 296.3788,-270.3381"/>
<polygon fill="#000000" stroke="#000000" points="299.8576,-269.9339 295.5608,-260.2495 292.8805,-270.4996 299.8576,-269.9339"/>
</g>
<!-- HEAD -->
<g id="node3" class="node">
<title>HEAD</title>
<path fill="#fff68f" stroke="#cdbe70" d="M387,-478C387,-478 357,-478 357,-478 351,-478 345,-472 345,-466 345,-466 345,-454 345,-454 345,-448 351,-442 357,-442 357,-442 387,-442 387,-442 393,-442 399,-448 399,-454 399,-454 399,-466 399,-466 399,-472 393,-478 387,-478"/>
<text text-anchor="middle" x="372" y="-456.3" font-family="Times,serif" font-size="14.00" fill="#000000">HEAD</text>
</g>
<!-- HEAD&#45;&gt;master -->
<g id="edge2" class="edge">
<title>HEAD&#45;&gt;master</title>
<path fill="none" stroke="#000000" d="M372,-441.8314C372,-434.131 372,-424.9743 372,-416.4166"/>
<polygon fill="#000000" stroke="#000000" points="375.5001,-416.4132 372,-406.4133 368.5001,-416.4133 375.5001,-416.4132"/>
</g>
<!-- origin/master -->
<g id="node4" class="node">
<title>origin/master</title>
<path fill="#ffb6c1" stroke="#8b3a3a" d="M83.5,-259C83.5,-259 18.5,-259 18.5,-259 12.5,-259 6.5,-253 6.5,-247 6.5,-247 6.5,-235 6.5,-235 6.5,-229 12.5,-223 18.5,-223 18.5,-223 83.5,-223 83.5,-223 89.5,-223 95.5,-229 95.5,-235 95.5,-235 95.5,-247 95.5,-247 95.5,-253 89.5,-259 83.5,-259"/>
<text text-anchor="middle" x="51" y="-237.3" font-family="Times,serif" font-size="14.00" fill="#000000">origin/master</text>
</g>
<!-- a380b -->
<g id="node5" class="node">
<title>a380b</title>
<path fill="#c6e2ff" stroke="#4a708b" d="M210.5,-186C210.5,-186 135.5,-186 135.5,-186 129.5,-186 123.5,-180 123.5,-174 123.5,-174 123.5,-160 123.5,-160 123.5,-154 129.5,-148 135.5,-148 135.5,-148 210.5,-148 210.5,-148 216.5,-148 222.5,-154 222.5,-160 222.5,-160 222.5,-174 222.5,-174 222.5,-180 216.5,-186 210.5,-186"/>
<text text-anchor="middle" x="173" y="-170.8" font-family="Times,serif" font-size="14.00" fill="#000000">a380b</text>
<text text-anchor="middle" x="173" y="-155.8" font-family="Times,serif" font-size="14.00" fill="#000000">Finishing login</text>
</g>
<!-- origin/master&#45;&gt;a380b -->
<g id="edge3" class="edge">
<title>origin/master&#45;&gt;a380b</title>
<path fill="none" stroke="#000000" d="M80.8446,-222.8976C96.4632,-213.424 115.8068,-201.691 132.733,-191.4242"/>
<polygon fill="#000000" stroke="#000000" points="134.5965,-194.3875 141.3315,-186.2088 130.9662,-188.4024 134.5965,-194.3875"/>
</g>
<!-- b4c37 -->
<g id="node8" class="node">
<title>b4c37</title>
<path fill="#c6e2ff" stroke="#4a708b" d="M206.5,-112C206.5,-112 139.5,-112 139.5,-112 133.5,-112 127.5,-106 127.5,-100 127.5,-100 127.5,-86 127.5,-86 127.5,-80 133.5,-74 139.5,-74 139.5,-74 206.5,-74 206.5,-74 212.5,-74 218.5,-80 218.5,-86 218.5,-86 218.5,-100 218.5,-100 218.5,-106 212.5,-112 206.5,-112"/>
<text text-anchor="middle" x="173" y="-96.8" font-family="Times,serif" font-size="14.00" fill="#000000">b4c37</text>
<text text-anchor="middle" x="173" y="-81.8" font-family="Times,serif" font-size="14.00" fill="#000000">Starting login</text>
</g>
<!-- a380b&#45;&gt;b4c37 -->
<g id="edge6" class="edge">
<title>a380b&#45;&gt;b4c37</title>
<path fill="none" stroke="#000000" d="M173,-147.9432C173,-140.1493 173,-130.9538 173,-122.3381"/>
<polygon fill="#000000" stroke="#000000" points="176.5001,-122.2494 173,-112.2495 169.5001,-122.2495 176.5001,-122.2494"/>
</g>
<!-- origin -->
<g id="node6" class="node">
<title>origin</title>
<path fill="#fff68f" stroke="#cdbe70" d="M42,-333C42,-333 12,-333 12,-333 6,-333 0,-327 0,-321 0,-321 0,-309 0,-309 0,-303 6,-297 12,-297 12,-297 42,-297 42,-297 48,-297 54,-303 54,-309 54,-309 54,-321 54,-321 54,-327 48,-333 42,-333"/>
<text text-anchor="middle" x="27" y="-311.3" font-family="Times,serif" font-size="14.00" fill="#000000">origin</text>
</g>
<!-- origin&#45;&gt;origin/master -->
<g id="edge4" class="edge">
<title>origin&#45;&gt;origin/master</title>
<path fill="none" stroke="#000000" d="M32.9326,-296.7079C35.6645,-288.2843 38.9659,-278.1052 41.9952,-268.7649"/>
<polygon fill="#000000" stroke="#000000" points="45.3798,-269.6737 45.1357,-259.0817 38.7213,-267.5142 45.3798,-269.6737"/>
</g>
<!-- 76c16 -->
<g id="node7" class="node">
<title>76c16</title>
<path fill="#c6e2ff" stroke="#4a708b" d="M214.5,-38C214.5,-38 131.5,-38 131.5,-38 125.5,-38 119.5,-32 119.5,-26 119.5,-26 119.5,-12 119.5,-12 119.5,-6 125.5,0 131.5,0 131.5,0 214.5,0 214.5,0 220.5,0 226.5,-6 226.5,-12 226.5,-12 226.5,-26 226.5,-26 226.5,-32 220.5,-38 214.5,-38"/>
<text text-anchor="middle" x="173" y="-22.8" font-family="Times,serif" font-size="14.00" fill="#000000">76c16</text>
<text text-anchor="middle" x="173" y="-7.8" font-family="Times,serif" font-size="14.00" fill="#000000">Initiating project</text>
</g>
<!-- b4c37&#45;&gt;76c16 -->
<g id="edge5" class="edge">
<title>b4c37&#45;&gt;76c16</title>
<path fill="none" stroke="#000000" d="M173,-73.9432C173,-66.1493 173,-56.9538 173,-48.3381"/>
<polygon fill="#000000" stroke="#000000" points="176.5001,-48.2494 173,-38.2495 169.5001,-48.2495 176.5001,-48.2494"/>
</g>
<!-- 747bf -->
<g id="node9" class="node">
<title>747bf</title>
<path fill="#c6e2ff" stroke="#4a708b" d="M208,-260C208,-260 138,-260 138,-260 132,-260 126,-254 126,-248 126,-248 126,-234 126,-234 126,-228 132,-222 138,-222 138,-222 208,-222 208,-222 214,-222 220,-228 220,-234 220,-234 220,-248 220,-248 220,-254 214,-260 208,-260"/>
<text text-anchor="middle" x="173" y="-244.8" font-family="Times,serif" font-size="14.00" fill="#000000">747bf</text>
<text text-anchor="middle" x="173" y="-229.8" font-family="Times,serif" font-size="14.00" fill="#000000">Starting menu</text>
</g>
<!-- 747bf&#45;&gt;a380b -->
<g id="edge7" class="edge">
<title>747bf&#45;&gt;a380b</title>
<path fill="none" stroke="#000000" d="M173,-221.9432C173,-214.1493 173,-204.9538 173,-196.3381"/>
<polygon fill="#000000" stroke="#000000" points="176.5001,-196.2494 173,-186.2495 169.5001,-196.2495 176.5001,-196.2494"/>
</g>
<!-- abcde&#45;&gt;a380b -->
<g id="edge8" class="edge">
<title>abcde&#45;&gt;a380b</title>
<path fill="none" stroke="#000000" d="M262.8395,-221.9432C247.7147,-212.6933 229.3619,-201.4693 213.1967,-191.5831"/>
<polygon fill="#000000" stroke="#000000" points="214.8326,-188.481 204.4755,-186.2495 211.1805,-194.4527 214.8326,-188.481"/>
</g>
<!-- origin/menu -->
<g id="node11" class="node">
<title>origin/menu</title>
<path fill="#ffb6c1" stroke="#8b3a3a" d="M143.5,-333C143.5,-333 84.5,-333 84.5,-333 78.5,-333 72.5,-327 72.5,-321 72.5,-321 72.5,-309 72.5,-309 72.5,-303 78.5,-297 84.5,-297 84.5,-297 143.5,-297 143.5,-297 149.5,-297 155.5,-303 155.5,-309 155.5,-309 155.5,-321 155.5,-321 155.5,-327 149.5,-333 143.5,-333"/>
<text text-anchor="middle" x="114" y="-311.3" font-family="Times,serif" font-size="14.00" fill="#000000">origin/menu</text>
</g>
<!-- origin/menu&#45;&gt;747bf -->
<g id="edge10" class="edge">
<title>origin/menu&#45;&gt;747bf</title>
<path fill="none" stroke="#000000" d="M128.5843,-296.7079C135.4464,-288.1011 143.7698,-277.6615 151.3481,-268.1566"/>
<polygon fill="#000000" stroke="#000000" points="154.263,-270.1149 157.7605,-260.114 148.7897,-265.751 154.263,-270.1149"/>
</g>
<!-- origin/profile -->
<g id="node12" class="node">
<title>origin/profile</title>
<path fill="#ffb6c1" stroke="#8b3a3a" d="M242.5,-406C242.5,-406 177.5,-406 177.5,-406 171.5,-406 165.5,-400 165.5,-394 165.5,-394 165.5,-382 165.5,-382 165.5,-376 171.5,-370 177.5,-370 177.5,-370 242.5,-370 242.5,-370 248.5,-370 254.5,-376 254.5,-382 254.5,-382 254.5,-394 254.5,-394 254.5,-400 248.5,-406 242.5,-406"/>
<text text-anchor="middle" x="210" y="-384.3" font-family="Times,serif" font-size="14.00" fill="#000000">origin/profile</text>
</g>
<!-- origin/profile&#45;&gt;f1234 -->
<g id="edge11" class="edge">
<title>origin/profile&#45;&gt;f1234</title>
<path fill="none" stroke="#000000" d="M232.2472,-369.9551C243.159,-361.1044 256.4929,-350.2891 268.4366,-340.6015"/>
<polygon fill="#000000" stroke="#000000" points="270.8746,-343.1305 276.4362,-334.1128 266.465,-337.694 270.8746,-343.1305"/>
</g>
<!-- menu -->
<g id="node13" class="node">
<title>menu</title>
<path fill="#ffb6c1" stroke="#8b3a3a" d="M216,-333C216,-333 186,-333 186,-333 180,-333 174,-327 174,-321 174,-321 174,-309 174,-309 174,-303 180,-297 186,-297 186,-297 216,-297 216,-297 222,-297 228,-303 228,-309 228,-309 228,-321 228,-321 228,-327 222,-333 216,-333"/>
<text text-anchor="middle" x="201" y="-311.3" font-family="Times,serif" font-size="14.00" fill="#000000">menu</text>
</g>
<!-- menu&#45;&gt;747bf -->
<g id="edge12" class="edge">
<title>menu&#45;&gt;747bf</title>
<path fill="none" stroke="#000000" d="M194.0786,-296.7079C190.9865,-288.5358 187.2692,-278.7114 183.823,-269.6036"/>
<polygon fill="#000000" stroke="#000000" points="187.0448,-268.2282 180.2323,-260.114 180.4978,-270.7055 187.0448,-268.2282"/>
</g>
<!-- profile -->
<g id="node14" class="node">
<title>profile</title>
<path fill="#ffb6c1" stroke="#8b3a3a" d="M315,-406C315,-406 285,-406 285,-406 279,-406 273,-400 273,-394 273,-394 273,-382 273,-382 273,-376 279,-370 285,-370 285,-370 315,-370 315,-370 321,-370 327,-376 327,-382 327,-382 327,-394 327,-394 327,-400 321,-406 315,-406"/>
<text text-anchor="middle" x="300" y="-384.3" font-family="Times,serif" font-size="14.00" fill="#000000">profile</text>
</g>
<!-- profile&#45;&gt;f1234 -->
<g id="edge13" class="edge">
<title>profile&#45;&gt;f1234</title>
<path fill="none" stroke="#000000" d="M300,-369.9551C300,-362.2107 300,-352.9622 300,-344.2811"/>
<polygon fill="#000000" stroke="#000000" points="303.5001,-344.1128 300,-334.1128 296.5001,-344.1129 303.5001,-344.1128"/>
</g>
</g>
</svg>
