<?xml version="1.0" encoding="UTF-8" standalone="no"?>
<!DOCTYPE svg PUBLIC "-//W3C//DTD SVG 1.1//EN"
 "http://www.w3.org/Graphics/SVG/1.1/DTD/svg11.dtd">
<!-- Generated by graphviz version 2.40.1 (20161225.0304)
 -->
<!-- Title: git history Pages: 1 -->
<svg width="388pt" height="486pt"
 viewBox="0.00 0.00 387.50 486.00" xmlns="http://www.w3.org/2000/svg" xmlns:xlink="http://www.w3.org/1999/xlink">
<g id="graph0" class="graph" transform="scale(1 1) rotate(0) translate(4 482)">
<title>git history</title>
<polygon fill="#ffffff" stroke="transparent" points="-4,4 -4,-482 383.5,-482 383.5,4 -4,4"/>
<!-- master -->
<g id="node1" class="node">
<title>master</title>
<path fill="#ffb6c1" stroke="#8b3a3a" d="M367.5,-406C367.5,-406 337.5,-406 337.5,-406 331.5,-406 325.5,-400 325.5,-394 325.5,-394 325.5,-382 325.5,-382 325.5,-376 331.5,-370 337.5,-370 337.5,-370 367.5,-370 367.5,-370 373.5,-370 379.5,-376 379.5,-382 379.5,-382 379.5,-394 379.5,-394 379.5,-400 373.5,-406 367.5,-406"/>
<text text-anchor="middle" x="352.5" y="-384.3" font-family="Times,serif" font-size="14.00" fill="#000000">master</text>
</g>
<!-- f1234 -->
<g id="node2" class="node">
<title>f1234</title>
<path fill="#c6e2ff" stroke="#4a708b" d="M277,-334C277,-334 194,-334 194,-334 188,-334 182,-328 182,-322 182,-322 182,-308 182,-308 182,-302 188,-296 194,-296 194,-296 277,-296 277,-296 283,-296 289,-302 289,-308 289,-308 289,-322 289,-322 289,-328 283,-334 277,-334"/>
<text text-anchor="middle" x="235.5" y="-318.8" font-family="Times,serif" font-size="14.00" fill="#000000">f1234</text>
<text text-anchor="middle" x="235.5" y="-303.8" font-family="Times,serif" font-size="14.00" fill="#000000">Finishing profile</text>
</g>
<!-- master&#45;&gt;f1234 -->
<g id="edge1" class="edge">
<title>master&#45;&gt;f1234</title>
<path fill="none" stroke="#000000" d="M325.3638,-371.0688C310.4408,-361.7579 291.6518,-350.0349 275.1172,-339.7184"/>
<polygon fill="#000000" stroke="#000000" points="276.5389,-336.4801 266.2021,-334.156 272.8335,-342.419 276.5389,-336.4801"/>
</g>
<!-- abcde -->
<g id="node10" class="node">
<title>abcde</title>
<path fill="#c6e2ff" stroke="#4a708b" d="M273,-260C273,-260 198,-260 198,-260 192,-260 186,-254 186,-248 186,-248 186,-234 186,-234 186,-228 192,-222 198,-222 198,-222 273,-222 273,-222 279,-222 285,-228 285,-234 285,-234 285,-248 285,-248 285,-254 279,-260 273,-260"/>
<text text-anchor="middle" x="235.5" y="-244.8" font-family="Times,serif" font-size="14.00" fill="#000000">abcde</text>
<text text-anchor="middle" x="235.5" y="-229.8" font-family="Times,serif" font-size="14.00" fill="#000000">Starting profile</text>
</g>
<!-- f1234&#45;&gt;abcde -->
<g id="edge9" class="edge">
<title>f1234&#45;&gt;abcde</title>
<path fill="none" stroke="#000000" d="M235.5,-295.9432C235.5,-288.1493 235.5,-278.9538 235.5,-270.3381"/>
<polygon fill="#000000" stroke="#000000" points="239.0001,-270.2494 235.5,-260.2495 232.0001,-270.2495 239.0001,-270.2494"/>
</g>
<!-- HEAD -->
<g id="node3" class="node">
<title>HEAD</title>
<path fill="#fff68f" stroke="#cdbe70" d="M367.5,-478C367.5,-478 337.5,-478 337.5,-478 331.5,-478 325.5,-472 325.5,-466 325.5,-466 325.5,-454 325.5,-454 325.5,-448 331.5,-442 337.5,-442 337.5,-442 367.5,-442 367.5,-442 373.5,-442 379.5,-448 379.5,-454 379.5,-454 379.5,-466 379.5,-466 379.5,-472 373.5,-478 367.5,-478"/>
<text text-anchor="middle" x="352.5" y="-456.3" font-family="Times,serif" font-size="14.00" fill="#000000">HEAD</text>
</g>
<!-- HEAD&#45;&gt;master -->
<g id="edge2" class="edge">
<title>HEAD&#45;&gt;master</title>
<path fill="none" stroke="#000000" d="M352.5,-441.8314C352.5,-434.131 352.5,-424.9743 352.5,-416.4166"/>
<polygon fill="#000000" stroke="#000000" points="356.0001,-416.4132 352.5,-406.4133 349.0001,-416.4133 356.0001,-416.4132"/>
</g>
<!-- origin/master -->
<g id="node4" class="node">
<title>origin/master</title>
<path fill="#ffb6c1" stroke="#8b3a3a" d="M116,-406C116,-406 51,-406 51,-406 45,-406 39,-400 39,-394 39,-394 39,-382 39,-382 39,-376 45,-370 51,-370 51,-370 116,-370 116,-370 122,-370 128,-376 128,-382 128,-382 128,-394 128,-394 128,-400 122,-406 116,-406"/>
<text text-anchor="middle" x="83.5" y="-384.3" font-family="Times,serif" font-size="14.00" fill="#000000">origin/master</text>
</g>
<!-- origin/master&#45;&gt;f1234 -->
<g id="edge3" class="edge">
<title>origin/master&#45;&gt;f1234</title>
<path fill="none" stroke="#000000" d="M121.073,-369.9551C140.8308,-360.4661 165.2907,-348.7189 186.5178,-338.5243"/>
<polygon fill="#000000" stroke="#000000" points="188.2044,-341.5971 195.7034,-334.1128 185.1739,-335.2871 188.2044,-341.5971"/>
</g>
<!-- origin -->
<g id="node5" class="node">
<title>origin</title>
<path fill="#fff68f" stroke="#cdbe70" d="M98.5,-478C98.5,-478 68.5,-478 68.5,-478 62.5,-478 56.5,-472 56.5,-466 56.5,-466 56.5,-454 56.5,-454 56.5,-448 62.5,-442 68.5,-442 68.5,-442 98.5,-442 98.5,-442 104.5,-442 110.5,-448 110.5,-454 110.5,-454 110.5,-466 110.5,-466 110.5,-472 104.5,-478 98.5,-478"/>
<text text-anchor="middle" x="83.5" y="-456.3" font-family="Times,serif" font-size="14.00" fill="#000000">origin</text>
</g>
<!-- origin&#45;&gt;origin/master -->
<g id="edge4" class="edge">
<title>origin&#45;&gt;origin/master</title>
<path fill="none" stroke="#000000" d="M83.5,-441.8314C83.5,-434.131 83.5,-424.9743 83.5,-416.4166"/>
<polygon fill="#000000" stroke="#000000" points="87.0001,-416.4132 83.5,-406.4133 80.0001,-416.4133 87.0001,-416.4132"/>
</g>
<!-- 76c16 -->
<g id="node6" class="node">
<title>76c16</title>
<path fill="#c6e2ff" stroke="#4a708b" d="M219,-38C219,-38 136,-38 136,-38 130,-38 124,-32 124,-26 124,-26 124,-12 124,-12 124,-6 130,0 136,0 136,0 219,0 219,0 225,0 231,-6 231,-12 231,-12 231,-26 231,-26 231,-32 225,-38 219,-38"/>
<text text-anchor="middle" x="177.5" y="-22.8" font-family="Times,serif" font-size="14.00" fill="#000000">76c16</text>
<text text-anchor="middle" x="177.5" y="-7.8" font-family="Times,serif" font-size="14.00" fill="#000000">Initiating project</text>
</g>
<!-- b4c37 -->
<g id="node7" class="node">
<title>b4c37</title>
<path fill="#c6e2ff" stroke="#4a708b" d="M211,-112C211,-112 144,-112 144,-112 138,-112 132,-106 132,-100 132,-100 132,-86 132,-86 132,-80 138,-74 144,-74 144,-74 211,-74 211,-74 217,-74 223,-80 223,-86 223,-86 223,-100 223,-100 223,-106 217,-112 211,-112"/>
<text text-anchor="middle" x="177.5" y="-96.8" font-family="Times,serif" font-size="14.00" fill="#000000">b4c37</text>
<text text-anchor="middle" x="177.5" y="-81.8" font-family="Times,serif" font-size="14.00" fill="#000000">Starting login</text>
</g>
<!-- b4c37&#45;&gt;76c16 -->
<g id="edge5" class="edge">
<title>b4c37&#45;&gt;76c16</title>
<path fill="none" stroke="#000000" d="M177.5,-73.9432C177.5,-66.1493 177.5,-56.9538 177.5,-48.3381"/>
<polygon fill="#000000" stroke="#000000" points="181.0001,-48.2494 177.5,-38.2495 174.0001,-48.2495 181.0001,-48.2494"/>
</g>
<!-- a380b -->
<g id="node8" class="node">
<title>a380b</title>
<path fill="#c6e2ff" stroke="#4a708b" d="M215,-186C215,-186 140,-186 140,-186 134,-186 128,-180 128,-174 128,-174 128,-160 128,-160 128,-154 134,-148 140,-148 140,-148 215,-148 215,-148 221,-148 227,-154 227,-160 227,-160 227,-174 227,-174 227,-180 221,-186 215,-186"/>
<text text-anchor="middle" x="177.5" y="-170.8" font-family="Times,serif" font-size="14.00" fill="#000000">a380b</text>
<text text-anchor="middle" x="177.5" y="-155.8" font-family="Times,serif" font-size="14.00" fill="#000000">Finishing login</text>
</g>
<!-- a380b&#45;&gt;b4c37 -->
<g id="edge6" class="edge">
<title>a380b&#45;&gt;b4c37</title>
<path fill="none" stroke="#000000" d="M177.5,-147.9432C177.5,-140.1493 177.5,-130.9538 177.5,-122.3381"/>
<polygon fill="#000000" stroke="#000000" points="181.0001,-122.2494 177.5,-112.2495 174.0001,-122.2495 181.0001,-122.2494"/>
</g>
<!-- 747bf -->
<g id="node9" class="node">
<title>747bf</title>
<path fill="#c6e2ff" stroke="#4a708b" d="M155.5,-260C155.5,-260 85.5,-260 85.5,-260 79.5,-260 73.5,-254 73.5,-248 73.5,-248 73.5,-234 73.5,-234 73.5,-228 79.5,-222 85.5,-222 85.5,-222 155.5,-222 155.5,-222 161.5,-222 167.5,-228 167.5,-234 167.5,-234 167.5,-248 167.5,-248 167.5,-254 161.5,-260 155.5,-260"/>
<text text-anchor="middle" x="120.5" y="-244.8" font-family="Times,serif" font-size="14.00" fill="#000000">747bf</text>
<text text-anchor="middle" x="120.5" y="-229.8" font-family="Times,serif" font-size="14.00" fill="#000000">Starting menu</text>
</g>
<!-- 747bf&#45;&gt;a380b -->
<g id="edge7" class="edge">
<title>747bf&#45;&gt;a380b</title>
<path fill="none" stroke="#000000" d="M135.1789,-221.9432C141.6441,-213.5497 149.3614,-203.5309 156.4246,-194.361"/>
<polygon fill="#000000" stroke="#000000" points="159.3432,-196.3075 162.6727,-186.2495 153.7976,-192.0359 159.3432,-196.3075"/>
</g>
<!-- abcde&#45;&gt;a380b -->
<g id="edge8" class="edge">
<title>abcde&#45;&gt;a380b</title>
<path fill="none" stroke="#000000" d="M220.5636,-221.9432C213.9849,-213.5497 206.1323,-203.5309 198.9451,-194.361"/>
<polygon fill="#000000" stroke="#000000" points="201.511,-191.9609 192.5874,-186.2495 196.0016,-196.2791 201.511,-191.9609"/>
</g>
<!-- origin/menu -->
<g id="node11" class="node">
<title>origin/menu</title>
<path fill="#ffb6c1" stroke="#8b3a3a" d="M71,-333C71,-333 12,-333 12,-333 6,-333 0,-327 0,-321 0,-321 0,-309 0,-309 0,-303 6,-297 12,-297 12,-297 71,-297 71,-297 77,-297 83,-303 83,-309 83,-309 83,-321 83,-321 83,-327 77,-333 71,-333"/>
<text text-anchor="middle" x="41.5" y="-311.3" font-family="Times,serif" font-size="14.00" fill="#000000">origin/menu</text>
</g>
<!-- origin/menu&#45;&gt;747bf -->
<g id="edge10" class="edge">
<title>origin/menu&#45;&gt;747bf</title>
<path fill="none" stroke="#000000" d="M61.0281,-296.7079C70.5877,-287.7533 82.2651,-276.815 92.7333,-267.0093"/>
<polygon fill="#000000" stroke="#000000" points="95.189,-269.5047 100.0946,-260.114 90.4035,-264.3959 95.189,-269.5047"/>
</g>
<!-- origin/profile -->
<g id="node12" class="node">
<title>origin/profile</title>
<path fill="#ffb6c1" stroke="#8b3a3a" d="M223,-406C223,-406 158,-406 158,-406 152,-406 146,-400 146,-394 146,-394 146,-382 146,-382 146,-376 152,-370 158,-370 158,-370 223,-370 223,-370 229,-370 235,-376 235,-382 235,-382 235,-394 235,-394 235,-400 229,-406 223,-406"/>
<text text-anchor="middle" x="190.5" y="-384.3" font-family="Times,serif" font-size="14.00" fill="#000000">origin/profile</text>
</g>
<!-- origin/profile&#45;&gt;f1234 -->
<g id="edge11" class="edge">
<title>origin/profile&#45;&gt;f1234</title>
<path fill="none" stroke="#000000" d="M201.6236,-369.9551C206.6598,-361.7852 212.7279,-351.9413 218.3287,-342.8557"/>
<polygon fill="#000000" stroke="#000000" points="221.45,-344.4621 223.7181,-334.1128 215.4912,-340.7888 221.45,-344.4621"/>
</g>
<!-- menu -->
<g id="node13" class="node">
<title>menu</title>
<path fill="#ffb6c1" stroke="#8b3a3a" d="M143.5,-333C143.5,-333 113.5,-333 113.5,-333 107.5,-333 101.5,-327 101.5,-321 101.5,-321 101.5,-309 101.5,-309 101.5,-303 107.5,-297 113.5,-297 113.5,-297 143.5,-297 143.5,-297 149.5,-297 155.5,-303 155.5,-309 155.5,-309 155.5,-321 155.5,-321 155.5,-327 149.5,-333 143.5,-333"/>
<text text-anchor="middle" x="128.5" y="-311.3" font-family="Times,serif" font-size="14.00" fill="#000000">menu</text>
</g>
<!-- menu&#45;&gt;747bf -->
<g id="edge12" class="edge">
<title>menu&#45;&gt;747bf</title>
<path fill="none" stroke="#000000" d="M126.5225,-296.7079C125.6578,-288.7096 124.622,-279.1287 123.6552,-270.1859"/>
<polygon fill="#000000" stroke="#000000" points="127.121,-269.6798 122.5664,-260.114 120.1616,-270.4323 127.121,-269.6798"/>
</g>
<!-- profile -->
<g id="node14" class="node">
<title>profile</title>
<path fill="#ffb6c1" stroke="#8b3a3a" d="M295.5,-406C295.5,-406 265.5,-406 265.5,-406 259.5,-406 253.5,-400 253.5,-394 253.5,-394 253.5,-382 253.5,-382 253.5,-376 259.5,-370 265.5,-370 265.5,-370 295.5,-370 295.5,-370 301.5,-370 307.5,-376 307.5,-382 307.5,-382 307.5,-394 307.5,-394 307.5,-400 301.5,-406 295.5,-406"/>
<text text-anchor="middle" x="280.5" y="-384.3" font-family="Times,serif" font-size="14.00" fill="#000000">profile</text>
</g>
<!-- profile&#45;&gt;f1234 -->
<g id="edge13" class="edge">
<title>profile&#45;&gt;f1234</title>
<path fill="none" stroke="#000000" d="M269.3764,-369.9551C264.3402,-361.7852 258.2721,-351.9413 252.6713,-342.8557"/>
<polygon fill="#000000" stroke="#000000" points="255.5088,-340.7888 247.2819,-334.1128 249.55,-344.4621 255.5088,-340.7888"/>
</g>
</g>
</svg>
