<?xml version="1.0" encoding="UTF-8" standalone="no"?>
<!DOCTYPE svg PUBLIC "-//W3C//DTD SVG 1.1//EN"
 "http://www.w3.org/Graphics/SVG/1.1/DTD/svg11.dtd">
<!-- Generated by graphviz version 2.40.1 (20161225.0304)
 -->
<!-- Title: git history Pages: 1 -->
<svg width="170pt" height="338pt"
 viewBox="0.00 0.00 169.50 338.00" xmlns="http://www.w3.org/2000/svg" xmlns:xlink="http://www.w3.org/1999/xlink">
<g id="graph0" class="graph" transform="scale(1 1) rotate(0) translate(4 334)">
<title>git history</title>
<polygon fill="#ffffff" stroke="transparent" points="-4,4 -4,-334 165.5,-334 165.5,4 -4,4"/>
<!-- master -->
<g id="node1" class="node">
<title>master</title>
<path fill="#ffb6c1" stroke="#8b3a3a" d="M149.5,-258C149.5,-258 119.5,-258 119.5,-258 113.5,-258 107.5,-252 107.5,-246 107.5,-246 107.5,-234 107.5,-234 107.5,-228 113.5,-222 119.5,-222 119.5,-222 149.5,-222 149.5,-222 155.5,-222 161.5,-228 161.5,-234 161.5,-234 161.5,-246 161.5,-246 161.5,-252 155.5,-258 149.5,-258"/>
<text text-anchor="middle" x="134.5" y="-236.3" font-family="Times,serif" font-size="14.00" fill="#000000">master</text>
</g>
<!-- a380b -->
<g id="node2" class="node">
<title>a380b</title>
<path fill="#c6e2ff" stroke="#4a708b" d="M134,-186C134,-186 45,-186 45,-186 39,-186 33,-180 33,-174 33,-174 33,-160 33,-160 33,-154 39,-148 45,-148 45,-148 134,-148 134,-148 140,-148 146,-154 146,-160 146,-160 146,-174 146,-174 146,-180 140,-186 134,-186"/>
<text text-anchor="middle" x="89.5" y="-170.8" font-family="Times,serif" font-size="14.00" fill="#000000">a380b</text>
<text text-anchor="middle" x="89.5" y="-155.8" font-family="Times,serif" font-size="14.00" fill="#000000">Commit message</text>
</g>
<!-- master&#45;&gt;a380b -->
<g id="edge1" class="edge">
<title>master&#45;&gt;a380b</title>
<path fill="none" stroke="#000000" d="M123.3764,-221.9551C118.3402,-213.7852 112.2721,-203.9413 106.6713,-194.8557"/>
<polygon fill="#000000" stroke="#000000" points="109.5088,-192.7888 101.2819,-186.1128 103.55,-196.4621 109.5088,-192.7888"/>
</g>
<!-- b4c37 -->
<g id="node7" class="node">
<title>b4c37</title>
<path fill="#c6e2ff" stroke="#4a708b" d="M129,-112C129,-112 50,-112 50,-112 44,-112 38,-106 38,-100 38,-100 38,-86 38,-86 38,-80 44,-74 50,-74 50,-74 129,-74 129,-74 135,-74 141,-80 141,-86 141,-86 141,-100 141,-100 141,-106 135,-112 129,-112"/>
<text text-anchor="middle" x="89.5" y="-96.8" font-family="Times,serif" font-size="14.00" fill="#000000">b4c37</text>
<text text-anchor="middle" x="89.5" y="-81.8" font-family="Times,serif" font-size="14.00" fill="#000000">Second commit</text>
</g>
<!-- a380b&#45;&gt;b4c37 -->
<g id="edge6" class="edge">
<title>a380b&#45;&gt;b4c37</title>
<path fill="none" stroke="#000000" d="M89.5,-147.9432C89.5,-140.1493 89.5,-130.9538 89.5,-122.3381"/>
<polygon fill="#000000" stroke="#000000" points="93.0001,-122.2494 89.5,-112.2495 86.0001,-122.2495 93.0001,-122.2494"/>
</g>
<!-- HEAD -->
<g id="node3" class="node">
<title>HEAD</title>
<path fill="#fff68f" stroke="#cdbe70" d="M149.5,-330C149.5,-330 119.5,-330 119.5,-330 113.5,-330 107.5,-324 107.5,-318 107.5,-318 107.5,-306 107.5,-306 107.5,-300 113.5,-294 119.5,-294 119.5,-294 149.5,-294 149.5,-294 155.5,-294 161.5,-300 161.5,-306 161.5,-306 161.5,-318 161.5,-318 161.5,-324 155.5,-330 149.5,-330"/>
<text text-anchor="middle" x="134.5" y="-308.3" font-family="Times,serif" font-size="14.00" fill="#000000">HEAD</text>
</g>
<!-- HEAD&#45;&gt;master -->
<g id="edge2" class="edge">
<title>HEAD&#45;&gt;master</title>
<path fill="none" stroke="#000000" d="M134.5,-293.8314C134.5,-286.131 134.5,-276.9743 134.5,-268.4166"/>
<polygon fill="#000000" stroke="#000000" points="138.0001,-268.4132 134.5,-258.4133 131.0001,-268.4133 138.0001,-268.4132"/>
</g>
<!-- origin/master -->
<g id="node4" class="node">
<title>origin/master</title>
<path fill="#ffb6c1" stroke="#8b3a3a" d="M77,-258C77,-258 12,-258 12,-258 6,-258 0,-252 0,-246 0,-246 0,-234 0,-234 0,-228 6,-222 12,-222 12,-222 77,-222 77,-222 83,-222 89,-228 89,-234 89,-234 89,-246 89,-246 89,-252 83,-258 77,-258"/>
<text text-anchor="middle" x="44.5" y="-236.3" font-family="Times,serif" font-size="14.00" fill="#000000">origin/master</text>
</g>
<!-- origin/master&#45;&gt;a380b -->
<g id="edge3" class="edge">
<title>origin/master&#45;&gt;a380b</title>
<path fill="none" stroke="#000000" d="M55.6236,-221.9551C60.6598,-213.7852 66.7279,-203.9413 72.3287,-194.8557"/>
<polygon fill="#000000" stroke="#000000" points="75.45,-196.4621 77.7181,-186.1128 69.4912,-192.7888 75.45,-196.4621"/>
</g>
<!-- origin -->
<g id="node5" class="node">
<title>origin</title>
<path fill="#fff68f" stroke="#cdbe70" d="M59.5,-330C59.5,-330 29.5,-330 29.5,-330 23.5,-330 17.5,-324 17.5,-318 17.5,-318 17.5,-306 17.5,-306 17.5,-300 23.5,-294 29.5,-294 29.5,-294 59.5,-294 59.5,-294 65.5,-294 71.5,-300 71.5,-306 71.5,-306 71.5,-318 71.5,-318 71.5,-324 65.5,-330 59.5,-330"/>
<text text-anchor="middle" x="44.5" y="-308.3" font-family="Times,serif" font-size="14.00" fill="#000000">origin</text>
</g>
<!-- origin&#45;&gt;origin/master -->
<g id="edge4" class="edge">
<title>origin&#45;&gt;origin/master</title>
<path fill="none" stroke="#000000" d="M44.5,-293.8314C44.5,-286.131 44.5,-276.9743 44.5,-268.4166"/>
<polygon fill="#000000" stroke="#000000" points="48.0001,-268.4132 44.5,-258.4133 41.0001,-268.4133 48.0001,-268.4132"/>
</g>
<!-- 76c16 -->
<g id="node6" class="node">
<title>76c16</title>
<path fill="#c6e2ff" stroke="#4a708b" d="M121.5,-38C121.5,-38 57.5,-38 57.5,-38 51.5,-38 45.5,-32 45.5,-26 45.5,-26 45.5,-12 45.5,-12 45.5,-6 51.5,0 57.5,0 57.5,0 121.5,0 121.5,0 127.5,0 133.5,-6 133.5,-12 133.5,-12 133.5,-26 133.5,-26 133.5,-32 127.5,-38 121.5,-38"/>
<text text-anchor="middle" x="89.5" y="-22.8" font-family="Times,serif" font-size="14.00" fill="#000000">76c16</text>
<text text-anchor="middle" x="89.5" y="-7.8" font-family="Times,serif" font-size="14.00" fill="#000000">First commit</text>
</g>
<!-- b4c37&#45;&gt;76c16 -->
<g id="edge5" class="edge">
<title>b4c37&#45;&gt;76c16</title>
<path fill="none" stroke="#000000" d="M89.5,-73.9432C89.5,-66.1493 89.5,-56.9538 89.5,-48.3381"/>
<polygon fill="#000000" stroke="#000000" points="93.0001,-48.2494 89.5,-38.2495 86.0001,-48.2495 93.0001,-48.2494"/>
</g>
</g>
</svg>
