<?xml version="1.0" encoding="UTF-8" standalone="no"?>
<!DOCTYPE svg PUBLIC "-//W3C//DTD SVG 1.1//EN"
 "http://www.w3.org/Graphics/SVG/1.1/DTD/svg11.dtd">
<!-- Generated by graphviz version 2.40.1 (20161225.0304)
 -->
<!-- Title: git history Pages: 1 -->
<svg width="228pt" height="338pt"
 viewBox="0.00 0.00 228.00 338.00" xmlns="http://www.w3.org/2000/svg" xmlns:xlink="http://www.w3.org/1999/xlink">
<g id="graph0" class="graph" transform="scale(1 1) rotate(0) translate(4 334)">
<title>git history</title>
<polygon fill="#ffffff" stroke="transparent" points="-4,4 -4,-334 224,-334 224,4 -4,4"/>
<!-- master -->
<g id="node1" class="node">
<title>master</title>
<path fill="#ffb6c1" stroke="#8b3a3a" d="M178.5,-258C178.5,-258 148.5,-258 148.5,-258 142.5,-258 136.5,-252 136.5,-246 136.5,-246 136.5,-234 136.5,-234 136.5,-228 142.5,-222 148.5,-222 148.5,-222 178.5,-222 178.5,-222 184.5,-222 190.5,-228 190.5,-234 190.5,-234 190.5,-246 190.5,-246 190.5,-252 184.5,-258 178.5,-258"/>
<text text-anchor="middle" x="163.5" y="-236.3" font-family="Times,serif" font-size="14.00" fill="#000000">master</text>
</g>
<!-- a380b -->
<g id="node2" class="node">
<title>a380b</title>
<path fill="#c6e2ff" stroke="#4a708b" d="M208,-186C208,-186 119,-186 119,-186 113,-186 107,-180 107,-174 107,-174 107,-160 107,-160 107,-154 113,-148 119,-148 119,-148 208,-148 208,-148 214,-148 220,-154 220,-160 220,-160 220,-174 220,-174 220,-180 214,-186 208,-186"/>
<text text-anchor="middle" x="163.5" y="-170.8" font-family="Times,serif" font-size="14.00" fill="#000000">a380b</text>
<text text-anchor="middle" x="163.5" y="-155.8" font-family="Times,serif" font-size="14.00" fill="#000000">Commit message</text>
</g>
<!-- master&#45;&gt;a380b -->
<g id="edge1" class="edge">
<title>master&#45;&gt;a380b</title>
<path fill="none" stroke="#000000" d="M163.5,-221.9551C163.5,-214.2107 163.5,-204.9622 163.5,-196.2811"/>
<polygon fill="#000000" stroke="#000000" points="167.0001,-196.1128 163.5,-186.1128 160.0001,-196.1129 167.0001,-196.1128"/>
</g>
<!-- b4c37 -->
<g id="node5" class="node">
<title>b4c37</title>
<path fill="#c6e2ff" stroke="#4a708b" d="M143,-112C143,-112 64,-112 64,-112 58,-112 52,-106 52,-100 52,-100 52,-86 52,-86 52,-80 58,-74 64,-74 64,-74 143,-74 143,-74 149,-74 155,-80 155,-86 155,-86 155,-100 155,-100 155,-106 149,-112 143,-112"/>
<text text-anchor="middle" x="103.5" y="-96.8" font-family="Times,serif" font-size="14.00" fill="#000000">b4c37</text>
<text text-anchor="middle" x="103.5" y="-81.8" font-family="Times,serif" font-size="14.00" fill="#000000">Second commit</text>
</g>
<!-- a380b&#45;&gt;b4c37 -->
<g id="edge6" class="edge">
<title>a380b&#45;&gt;b4c37</title>
<path fill="none" stroke="#000000" d="M148.0485,-147.9432C141.1736,-139.4641 132.9537,-129.3262 125.4572,-120.0806"/>
<polygon fill="#000000" stroke="#000000" points="128.1244,-117.8127 119.1077,-112.2495 122.6871,-122.2214 128.1244,-117.8127"/>
</g>
<!-- HEAD -->
<g id="node3" class="node">
<title>HEAD</title>
<path fill="#fff68f" stroke="#cdbe70" d="M178.5,-330C178.5,-330 148.5,-330 148.5,-330 142.5,-330 136.5,-324 136.5,-318 136.5,-318 136.5,-306 136.5,-306 136.5,-300 142.5,-294 148.5,-294 148.5,-294 178.5,-294 178.5,-294 184.5,-294 190.5,-300 190.5,-306 190.5,-306 190.5,-318 190.5,-318 190.5,-324 184.5,-330 178.5,-330"/>
<text text-anchor="middle" x="163.5" y="-308.3" font-family="Times,serif" font-size="14.00" fill="#000000">HEAD</text>
</g>
<!-- HEAD&#45;&gt;master -->
<g id="edge2" class="edge">
<title>HEAD&#45;&gt;master</title>
<path fill="none" stroke="#000000" d="M163.5,-293.8314C163.5,-286.131 163.5,-276.9743 163.5,-268.4166"/>
<polygon fill="#000000" stroke="#000000" points="167.0001,-268.4132 163.5,-258.4133 160.0001,-268.4133 167.0001,-268.4132"/>
</g>
<!-- origin/master -->
<g id="node4" class="node">
<title>origin/master</title>
<path fill="#ffb6c1" stroke="#8b3a3a" d="M77,-185C77,-185 12,-185 12,-185 6,-185 0,-179 0,-173 0,-173 0,-161 0,-161 0,-155 6,-149 12,-149 12,-149 77,-149 77,-149 83,-149 89,-155 89,-161 89,-161 89,-173 89,-173 89,-179 83,-185 77,-185"/>
<text text-anchor="middle" x="44.5" y="-163.3" font-family="Times,serif" font-size="14.00" fill="#000000">origin/master</text>
</g>
<!-- origin/master&#45;&gt;b4c37 -->
<g id="edge3" class="edge">
<title>origin/master&#45;&gt;b4c37</title>
<path fill="none" stroke="#000000" d="M59.0843,-148.7079C65.9464,-140.1011 74.2698,-129.6615 81.8481,-120.1566"/>
<polygon fill="#000000" stroke="#000000" points="84.763,-122.1149 88.2605,-112.114 79.2897,-117.751 84.763,-122.1149"/>
</g>
<!-- 76c16 -->
<g id="node7" class="node">
<title>76c16</title>
<path fill="#c6e2ff" stroke="#4a708b" d="M135.5,-38C135.5,-38 71.5,-38 71.5,-38 65.5,-38 59.5,-32 59.5,-26 59.5,-26 59.5,-12 59.5,-12 59.5,-6 65.5,0 71.5,0 71.5,0 135.5,0 135.5,0 141.5,0 147.5,-6 147.5,-12 147.5,-12 147.5,-26 147.5,-26 147.5,-32 141.5,-38 135.5,-38"/>
<text text-anchor="middle" x="103.5" y="-22.8" font-family="Times,serif" font-size="14.00" fill="#000000">76c16</text>
<text text-anchor="middle" x="103.5" y="-7.8" font-family="Times,serif" font-size="14.00" fill="#000000">First commit</text>
</g>
<!-- b4c37&#45;&gt;76c16 -->
<g id="edge5" class="edge">
<title>b4c37&#45;&gt;76c16</title>
<path fill="none" stroke="#000000" d="M103.5,-73.9432C103.5,-66.1493 103.5,-56.9538 103.5,-48.3381"/>
<polygon fill="#000000" stroke="#000000" points="107.0001,-48.2494 103.5,-38.2495 100.0001,-48.2495 107.0001,-48.2494"/>
</g>
<!-- origin -->
<g id="node6" class="node">
<title>origin</title>
<path fill="#fff68f" stroke="#cdbe70" d="M59.5,-258C59.5,-258 29.5,-258 29.5,-258 23.5,-258 17.5,-252 17.5,-246 17.5,-246 17.5,-234 17.5,-234 17.5,-228 23.5,-222 29.5,-222 29.5,-222 59.5,-222 59.5,-222 65.5,-222 71.5,-228 71.5,-234 71.5,-234 71.5,-246 71.5,-246 71.5,-252 65.5,-258 59.5,-258"/>
<text text-anchor="middle" x="44.5" y="-236.3" font-family="Times,serif" font-size="14.00" fill="#000000">origin</text>
</g>
<!-- origin&#45;&gt;origin/master -->
<g id="edge4" class="edge">
<title>origin&#45;&gt;origin/master</title>
<path fill="none" stroke="#000000" d="M44.5,-221.9551C44.5,-213.8828 44.5,-204.1764 44.5,-195.1817"/>
<polygon fill="#000000" stroke="#000000" points="48.0001,-195.0903 44.5,-185.0904 41.0001,-195.0904 48.0001,-195.0903"/>
</g>
</g>
</svg>
