<?xml version="1.0" encoding="UTF-8" standalone="no"?>
<!DOCTYPE svg PUBLIC "-//W3C//DTD SVG 1.1//EN"
 "http://www.w3.org/Graphics/SVG/1.1/DTD/svg11.dtd">
<!-- Generated by graphviz version 2.40.1 (20161225.0304)
 -->
<!-- Title: git history Pages: 1 -->
<svg width="488pt" height="340pt"
 viewBox="0.00 0.00 488.00 340.00" xmlns="http://www.w3.org/2000/svg" xmlns:xlink="http://www.w3.org/1999/xlink">
<g id="graph0" class="graph" transform="scale(1 1) rotate(0) translate(4 336)">
<title>git history</title>
<polygon fill="#ffffff" stroke="transparent" points="-4,4 -4,-336 484,-336 484,4 -4,4"/>
<!-- master -->
<g id="node1" class="node">
<title>master</title>
<path fill="#ffb6c1" stroke="#8b3a3a" d="M446,-259C446,-259 416,-259 416,-259 410,-259 404,-253 404,-247 404,-247 404,-235 404,-235 404,-229 410,-223 416,-223 416,-223 446,-223 446,-223 452,-223 458,-229 458,-235 458,-235 458,-247 458,-247 458,-253 452,-259 446,-259"/>
<text text-anchor="middle" x="431" y="-237.3" font-family="Times,serif" font-size="14.00" fill="#000000">master</text>
</g>
<!-- a380b -->
<g id="node2" class="node">
<title>a380b</title>
<path fill="#c6e2ff" stroke="#4a708b" d="M282.5,-186C282.5,-186 207.5,-186 207.5,-186 201.5,-186 195.5,-180 195.5,-174 195.5,-174 195.5,-160 195.5,-160 195.5,-154 201.5,-148 207.5,-148 207.5,-148 282.5,-148 282.5,-148 288.5,-148 294.5,-154 294.5,-160 294.5,-160 294.5,-174 294.5,-174 294.5,-180 288.5,-186 282.5,-186"/>
<text text-anchor="middle" x="245" y="-170.8" font-family="Times,serif" font-size="14.00" fill="#000000">a380b</text>
<text text-anchor="middle" x="245" y="-155.8" font-family="Times,serif" font-size="14.00" fill="#000000">Finishing login</text>
</g>
<!-- master&#45;&gt;a380b -->
<g id="edge1" class="edge">
<title>master&#45;&gt;a380b</title>
<path fill="none" stroke="#000000" d="M403.954,-230.2398C377.4302,-219.6873 336.1602,-203.268 302.3196,-189.8046"/>
<polygon fill="#000000" stroke="#000000" points="303.5758,-186.5376 292.9903,-186.0929 300.9881,-193.0417 303.5758,-186.5376"/>
</g>
<!-- b4c37 -->
<g id="node7" class="node">
<title>b4c37</title>
<path fill="#c6e2ff" stroke="#4a708b" d="M278.5,-112C278.5,-112 211.5,-112 211.5,-112 205.5,-112 199.5,-106 199.5,-100 199.5,-100 199.5,-86 199.5,-86 199.5,-80 205.5,-74 211.5,-74 211.5,-74 278.5,-74 278.5,-74 284.5,-74 290.5,-80 290.5,-86 290.5,-86 290.5,-100 290.5,-100 290.5,-106 284.5,-112 278.5,-112"/>
<text text-anchor="middle" x="245" y="-96.8" font-family="Times,serif" font-size="14.00" fill="#000000">b4c37</text>
<text text-anchor="middle" x="245" y="-81.8" font-family="Times,serif" font-size="14.00" fill="#000000">Starting login</text>
</g>
<!-- a380b&#45;&gt;b4c37 -->
<g id="edge6" class="edge">
<title>a380b&#45;&gt;b4c37</title>
<path fill="none" stroke="#000000" d="M245,-147.9432C245,-140.1493 245,-130.9538 245,-122.3381"/>
<polygon fill="#000000" stroke="#000000" points="248.5001,-122.2494 245,-112.2495 241.5001,-122.2495 248.5001,-122.2494"/>
</g>
<!-- HEAD -->
<g id="node3" class="node">
<title>HEAD</title>
<path fill="#fff68f" stroke="#cdbe70" d="M468,-332C468,-332 438,-332 438,-332 432,-332 426,-326 426,-320 426,-320 426,-308 426,-308 426,-302 432,-296 438,-296 438,-296 468,-296 468,-296 474,-296 480,-302 480,-308 480,-308 480,-320 480,-320 480,-326 474,-332 468,-332"/>
<text text-anchor="middle" x="453" y="-310.3" font-family="Times,serif" font-size="14.00" fill="#000000">HEAD</text>
</g>
<!-- HEAD&#45;&gt;master -->
<g id="edge2" class="edge">
<title>HEAD&#45;&gt;master</title>
<path fill="none" stroke="#000000" d="M447.5618,-295.9551C445.1026,-287.7951 442.1402,-277.9652 439.4048,-268.8887"/>
<polygon fill="#000000" stroke="#000000" points="442.6886,-267.6551 436.4519,-259.0904 435.9863,-269.675 442.6886,-267.6551"/>
</g>
<!-- origin/master -->
<g id="node4" class="node">
<title>origin/master</title>
<path fill="#ffb6c1" stroke="#8b3a3a" d="M91.5,-259C91.5,-259 26.5,-259 26.5,-259 20.5,-259 14.5,-253 14.5,-247 14.5,-247 14.5,-235 14.5,-235 14.5,-229 20.5,-223 26.5,-223 26.5,-223 91.5,-223 91.5,-223 97.5,-223 103.5,-229 103.5,-235 103.5,-235 103.5,-247 103.5,-247 103.5,-253 97.5,-259 91.5,-259"/>
<text text-anchor="middle" x="59" y="-237.3" font-family="Times,serif" font-size="14.00" fill="#000000">origin/master</text>
</g>
<!-- origin/master&#45;&gt;a380b -->
<g id="edge3" class="edge">
<title>origin/master&#45;&gt;a380b</title>
<path fill="none" stroke="#000000" d="M103.5516,-223.2752C128.836,-213.2158 160.7492,-200.5191 187.8608,-189.7328"/>
<polygon fill="#000000" stroke="#000000" points="189.2338,-192.9535 197.2316,-186.0046 186.6461,-186.4493 189.2338,-192.9535"/>
</g>
<!-- origin -->
<g id="node5" class="node">
<title>origin</title>
<path fill="#fff68f" stroke="#cdbe70" d="M42,-332C42,-332 12,-332 12,-332 6,-332 0,-326 0,-320 0,-320 0,-308 0,-308 0,-302 6,-296 12,-296 12,-296 42,-296 42,-296 48,-296 54,-302 54,-308 54,-308 54,-320 54,-320 54,-326 48,-332 42,-332"/>
<text text-anchor="middle" x="27" y="-310.3" font-family="Times,serif" font-size="14.00" fill="#000000">origin</text>
</g>
<!-- origin&#45;&gt;origin/master -->
<g id="edge4" class="edge">
<title>origin&#45;&gt;origin/master</title>
<path fill="none" stroke="#000000" d="M34.9101,-295.9551C38.564,-287.6196 42.9818,-277.5416 47.031,-268.3042"/>
<polygon fill="#000000" stroke="#000000" points="50.2607,-269.6542 51.07,-259.0904 43.8496,-266.8439 50.2607,-269.6542"/>
</g>
<!-- 76c16 -->
<g id="node6" class="node">
<title>76c16</title>
<path fill="#c6e2ff" stroke="#4a708b" d="M286.5,-38C286.5,-38 203.5,-38 203.5,-38 197.5,-38 191.5,-32 191.5,-26 191.5,-26 191.5,-12 191.5,-12 191.5,-6 197.5,0 203.5,0 203.5,0 286.5,0 286.5,0 292.5,0 298.5,-6 298.5,-12 298.5,-12 298.5,-26 298.5,-26 298.5,-32 292.5,-38 286.5,-38"/>
<text text-anchor="middle" x="245" y="-22.8" font-family="Times,serif" font-size="14.00" fill="#000000">76c16</text>
<text text-anchor="middle" x="245" y="-7.8" font-family="Times,serif" font-size="14.00" fill="#000000">Initiating project</text>
</g>
<!-- b4c37&#45;&gt;76c16 -->
<g id="edge5" class="edge">
<title>b4c37&#45;&gt;76c16</title>
<path fill="none" stroke="#000000" d="M245,-73.9432C245,-66.1493 245,-56.9538 245,-48.3381"/>
<polygon fill="#000000" stroke="#000000" points="248.5001,-48.2494 245,-38.2495 241.5001,-48.2495 248.5001,-48.2494"/>
</g>
<!-- 747bf -->
<g id="node8" class="node">
<title>747bf</title>
<path fill="#c6e2ff" stroke="#4a708b" d="M223,-260C223,-260 153,-260 153,-260 147,-260 141,-254 141,-248 141,-248 141,-234 141,-234 141,-228 147,-222 153,-222 153,-222 223,-222 223,-222 229,-222 235,-228 235,-234 235,-234 235,-248 235,-248 235,-254 229,-260 223,-260"/>
<text text-anchor="middle" x="188" y="-244.8" font-family="Times,serif" font-size="14.00" fill="#000000">747bf</text>
<text text-anchor="middle" x="188" y="-229.8" font-family="Times,serif" font-size="14.00" fill="#000000">Starting menu</text>
</g>
<!-- 747bf&#45;&gt;a380b -->
<g id="edge7" class="edge">
<title>747bf&#45;&gt;a380b</title>
<path fill="none" stroke="#000000" d="M202.6789,-221.9432C209.1441,-213.5497 216.8614,-203.5309 223.9246,-194.361"/>
<polygon fill="#000000" stroke="#000000" points="226.8432,-196.3075 230.1727,-186.2495 221.2976,-192.0359 226.8432,-196.3075"/>
</g>
<!-- abcde -->
<g id="node9" class="node">
<title>abcde</title>
<path fill="#c6e2ff" stroke="#4a708b" d="M340.5,-260C340.5,-260 265.5,-260 265.5,-260 259.5,-260 253.5,-254 253.5,-248 253.5,-248 253.5,-234 253.5,-234 253.5,-228 259.5,-222 265.5,-222 265.5,-222 340.5,-222 340.5,-222 346.5,-222 352.5,-228 352.5,-234 352.5,-234 352.5,-248 352.5,-248 352.5,-254 346.5,-260 340.5,-260"/>
<text text-anchor="middle" x="303" y="-244.8" font-family="Times,serif" font-size="14.00" fill="#000000">abcde</text>
<text text-anchor="middle" x="303" y="-229.8" font-family="Times,serif" font-size="14.00" fill="#000000">Starting profile</text>
</g>
<!-- abcde&#45;&gt;a380b -->
<g id="edge8" class="edge">
<title>abcde&#45;&gt;a380b</title>
<path fill="none" stroke="#000000" d="M288.0636,-221.9432C281.4849,-213.5497 273.6323,-203.5309 266.4451,-194.361"/>
<polygon fill="#000000" stroke="#000000" points="269.011,-191.9609 260.0874,-186.2495 263.5016,-196.2791 269.011,-191.9609"/>
</g>
<!-- origin/menu -->
<g id="node10" class="node">
<title>origin/menu</title>
<path fill="#ffb6c1" stroke="#8b3a3a" d="M143.5,-332C143.5,-332 84.5,-332 84.5,-332 78.5,-332 72.5,-326 72.5,-320 72.5,-320 72.5,-308 72.5,-308 72.5,-302 78.5,-296 84.5,-296 84.5,-296 143.5,-296 143.5,-296 149.5,-296 155.5,-302 155.5,-308 155.5,-308 155.5,-320 155.5,-320 155.5,-326 149.5,-332 143.5,-332"/>
<text text-anchor="middle" x="114" y="-310.3" font-family="Times,serif" font-size="14.00" fill="#000000">origin/menu</text>
</g>
<!-- origin/menu&#45;&gt;747bf -->
<g id="edge9" class="edge">
<title>origin/menu&#45;&gt;747bf</title>
<path fill="none" stroke="#000000" d="M132.2921,-295.9551C141.0915,-287.2746 151.8066,-276.7043 161.48,-267.1616"/>
<polygon fill="#000000" stroke="#000000" points="163.9643,-269.6273 168.6253,-260.1128 159.0483,-264.644 163.9643,-269.6273"/>
</g>
<!-- origin/profile -->
<g id="node11" class="node">
<title>origin/profile</title>
<path fill="#ffb6c1" stroke="#8b3a3a" d="M323.5,-332C323.5,-332 258.5,-332 258.5,-332 252.5,-332 246.5,-326 246.5,-320 246.5,-320 246.5,-308 246.5,-308 246.5,-302 252.5,-296 258.5,-296 258.5,-296 323.5,-296 323.5,-296 329.5,-296 335.5,-302 335.5,-308 335.5,-308 335.5,-320 335.5,-320 335.5,-326 329.5,-332 323.5,-332"/>
<text text-anchor="middle" x="291" y="-310.3" font-family="Times,serif" font-size="14.00" fill="#000000">origin/profile</text>
</g>
<!-- origin/profile&#45;&gt;abcde -->
<g id="edge10" class="edge">
<title>origin/profile&#45;&gt;abcde</title>
<path fill="none" stroke="#000000" d="M293.9663,-295.9551C295.2533,-288.1256 296.7931,-278.7587 298.2337,-269.9952"/>
<polygon fill="#000000" stroke="#000000" points="301.6897,-270.5482 299.8582,-260.1128 294.7824,-269.4126 301.6897,-270.5482"/>
</g>
<!-- menu -->
<g id="node12" class="node">
<title>menu</title>
<path fill="#ffb6c1" stroke="#8b3a3a" d="M216,-332C216,-332 186,-332 186,-332 180,-332 174,-326 174,-320 174,-320 174,-308 174,-308 174,-302 180,-296 186,-296 186,-296 216,-296 216,-296 222,-296 228,-302 228,-308 228,-308 228,-320 228,-320 228,-326 222,-332 216,-332"/>
<text text-anchor="middle" x="201" y="-310.3" font-family="Times,serif" font-size="14.00" fill="#000000">menu</text>
</g>
<!-- menu&#45;&gt;747bf -->
<g id="edge11" class="edge">
<title>menu&#45;&gt;747bf</title>
<path fill="none" stroke="#000000" d="M197.7865,-295.9551C196.3922,-288.1256 194.7242,-278.7587 193.1635,-269.9952"/>
<polygon fill="#000000" stroke="#000000" points="196.6028,-269.3443 191.4037,-260.1128 189.7112,-270.5716 196.6028,-269.3443"/>
</g>
<!-- profile -->
<g id="node13" class="node">
<title>profile</title>
<path fill="#ffb6c1" stroke="#8b3a3a" d="M396,-332C396,-332 366,-332 366,-332 360,-332 354,-326 354,-320 354,-320 354,-308 354,-308 354,-302 360,-296 366,-296 366,-296 396,-296 396,-296 402,-296 408,-302 408,-308 408,-308 408,-320 408,-320 408,-326 402,-332 396,-332"/>
<text text-anchor="middle" x="381" y="-310.3" font-family="Times,serif" font-size="14.00" fill="#000000">profile</text>
</g>
<!-- profile&#45;&gt;abcde -->
<g id="edge12" class="edge">
<title>profile&#45;&gt;abcde</title>
<path fill="none" stroke="#000000" d="M361.7191,-295.9551C352.4441,-287.2746 341.1498,-276.7043 330.9535,-267.1616"/>
<polygon fill="#000000" stroke="#000000" points="333.1148,-264.3906 323.4219,-260.1128 328.3315,-269.5015 333.1148,-264.3906"/>
</g>
</g>
</svg>
