<?xml version="1.0" encoding="UTF-8" standalone="no"?>
<!DOCTYPE svg PUBLIC "-//W3C//DTD SVG 1.1//EN"
 "http://www.w3.org/Graphics/SVG/1.1/DTD/svg11.dtd">
<!-- Generated by graphviz version 2.40.1 (20161225.0304)
 -->
<!-- Title: git history Pages: 1 -->
<svg width="111pt" height="264pt"
 viewBox="0.00 0.00 111.00 264.00" xmlns="http://www.w3.org/2000/svg" xmlns:xlink="http://www.w3.org/1999/xlink">
<g id="graph0" class="graph" transform="scale(1 1) rotate(0) translate(4 260)">
<title>git history</title>
<polygon fill="#ffffff" stroke="transparent" points="-4,4 -4,-260 107,-260 107,4 -4,4"/>
<!-- master -->
<g id="node1" class="node">
<title>master</title>
<path fill="#ffb6c1" stroke="#8b3a3a" d="M66.5,-184C66.5,-184 36.5,-184 36.5,-184 30.5,-184 24.5,-178 24.5,-172 24.5,-172 24.5,-160 24.5,-160 24.5,-154 30.5,-148 36.5,-148 36.5,-148 66.5,-148 66.5,-148 72.5,-148 78.5,-154 78.5,-160 78.5,-160 78.5,-172 78.5,-172 78.5,-178 72.5,-184 66.5,-184"/>
<text text-anchor="middle" x="51.5" y="-162.3" font-family="Times,serif" font-size="14.00" fill="#000000">master</text>
</g>
<!-- b4c37 -->
<g id="node2" class="node">
<title>b4c37</title>
<path fill="#c6e2ff" stroke="#4a708b" d="M91,-112C91,-112 12,-112 12,-112 6,-112 0,-106 0,-100 0,-100 0,-86 0,-86 0,-80 6,-74 12,-74 12,-74 91,-74 91,-74 97,-74 103,-80 103,-86 103,-86 103,-100 103,-100 103,-106 97,-112 91,-112"/>
<text text-anchor="middle" x="51.5" y="-96.8" font-family="Times,serif" font-size="14.00" fill="#000000">b4c37</text>
<text text-anchor="middle" x="51.5" y="-81.8" font-family="Times,serif" font-size="14.00" fill="#000000">Second commit</text>
</g>
<!-- master&#45;&gt;b4c37 -->
<g id="edge1" class="edge">
<title>master&#45;&gt;b4c37</title>
<path fill="none" stroke="#000000" d="M51.5,-147.9551C51.5,-140.2107 51.5,-130.9622 51.5,-122.2811"/>
<polygon fill="#000000" stroke="#000000" points="55.0001,-122.1128 51.5,-112.1128 48.0001,-122.1129 55.0001,-122.1128"/>
</g>
<!-- 76c16 -->
<g id="node4" class="node">
<title>76c16</title>
<path fill="#c6e2ff" stroke="#4a708b" d="M83.5,-38C83.5,-38 19.5,-38 19.5,-38 13.5,-38 7.5,-32 7.5,-26 7.5,-26 7.5,-12 7.5,-12 7.5,-6 13.5,0 19.5,0 19.5,0 83.5,0 83.5,0 89.5,0 95.5,-6 95.5,-12 95.5,-12 95.5,-26 95.5,-26 95.5,-32 89.5,-38 83.5,-38"/>
<text text-anchor="middle" x="51.5" y="-22.8" font-family="Times,serif" font-size="14.00" fill="#000000">76c16</text>
<text text-anchor="middle" x="51.5" y="-7.8" font-family="Times,serif" font-size="14.00" fill="#000000">First commit</text>
</g>
<!-- b4c37&#45;&gt;76c16 -->
<g id="edge3" class="edge">
<title>b4c37&#45;&gt;76c16</title>
<path fill="none" stroke="#000000" d="M51.5,-73.9432C51.5,-66.1493 51.5,-56.9538 51.5,-48.3381"/>
<polygon fill="#000000" stroke="#000000" points="55.0001,-48.2494 51.5,-38.2495 48.0001,-48.2495 55.0001,-48.2494"/>
</g>
<!-- HEAD -->
<g id="node3" class="node">
<title>HEAD</title>
<path fill="#fff68f" stroke="#cdbe70" d="M66.5,-256C66.5,-256 36.5,-256 36.5,-256 30.5,-256 24.5,-250 24.5,-244 24.5,-244 24.5,-232 24.5,-232 24.5,-226 30.5,-220 36.5,-220 36.5,-220 66.5,-220 66.5,-220 72.5,-220 78.5,-226 78.5,-232 78.5,-232 78.5,-244 78.5,-244 78.5,-250 72.5,-256 66.5,-256"/>
<text text-anchor="middle" x="51.5" y="-234.3" font-family="Times,serif" font-size="14.00" fill="#000000">HEAD</text>
</g>
<!-- HEAD&#45;&gt;master -->
<g id="edge2" class="edge">
<title>HEAD&#45;&gt;master</title>
<path fill="none" stroke="#000000" d="M51.5,-219.8314C51.5,-212.131 51.5,-202.9743 51.5,-194.4166"/>
<polygon fill="#000000" stroke="#000000" points="55.0001,-194.4132 51.5,-184.4133 48.0001,-194.4133 55.0001,-194.4132"/>
</g>
</g>
</svg>
