<?xml version="1.0" encoding="UTF-8" standalone="no"?>
<!DOCTYPE svg PUBLIC "-//W3C//DTD SVG 1.1//EN"
 "http://www.w3.org/Graphics/SVG/1.1/DTD/svg11.dtd">
<!-- Generated by graphviz version 2.40.1 (20161225.0304)
 -->
<!-- Title: git history Pages: 1 -->
<svg width="121pt" height="338pt"
 viewBox="0.00 0.00 121.00 338.00" xmlns="http://www.w3.org/2000/svg" xmlns:xlink="http://www.w3.org/1999/xlink">
<g id="graph0" class="graph" transform="scale(1 1) rotate(0) translate(4 334)">
<title>git history</title>
<polygon fill="#ffffff" stroke="transparent" points="-4,4 -4,-334 117,-334 117,4 -4,4"/>
<!-- master -->
<g id="node1" class="node">
<title>master</title>
<path fill="#ffb6c1" stroke="#8b3a3a" d="M71.5,-258C71.5,-258 41.5,-258 41.5,-258 35.5,-258 29.5,-252 29.5,-246 29.5,-246 29.5,-234 29.5,-234 29.5,-228 35.5,-222 41.5,-222 41.5,-222 71.5,-222 71.5,-222 77.5,-222 83.5,-228 83.5,-234 83.5,-234 83.5,-246 83.5,-246 83.5,-252 77.5,-258 71.5,-258"/>
<text text-anchor="middle" x="56.5" y="-236.3" font-family="Times,serif" font-size="14.00" fill="#000000">master</text>
</g>
<!-- a380b -->
<g id="node2" class="node">
<title>a380b</title>
<path fill="#c6e2ff" stroke="#4a708b" d="M101,-186C101,-186 12,-186 12,-186 6,-186 0,-180 0,-174 0,-174 0,-160 0,-160 0,-154 6,-148 12,-148 12,-148 101,-148 101,-148 107,-148 113,-154 113,-160 113,-160 113,-174 113,-174 113,-180 107,-186 101,-186"/>
<text text-anchor="middle" x="56.5" y="-170.8" font-family="Times,serif" font-size="14.00" fill="#000000">a380b</text>
<text text-anchor="middle" x="56.5" y="-155.8" font-family="Times,serif" font-size="14.00" fill="#000000">Commit message</text>
</g>
<!-- master&#45;&gt;a380b -->
<g id="edge1" class="edge">
<title>master&#45;&gt;a380b</title>
<path fill="none" stroke="#000000" d="M56.5,-221.9551C56.5,-214.2107 56.5,-204.9622 56.5,-196.2811"/>
<polygon fill="#000000" stroke="#000000" points="60.0001,-196.1128 56.5,-186.1128 53.0001,-196.1129 60.0001,-196.1128"/>
</g>
<!-- b4c37 -->
<g id="node5" class="node">
<title>b4c37</title>
<path fill="#c6e2ff" stroke="#4a708b" d="M96,-112C96,-112 17,-112 17,-112 11,-112 5,-106 5,-100 5,-100 5,-86 5,-86 5,-80 11,-74 17,-74 17,-74 96,-74 96,-74 102,-74 108,-80 108,-86 108,-86 108,-100 108,-100 108,-106 102,-112 96,-112"/>
<text text-anchor="middle" x="56.5" y="-96.8" font-family="Times,serif" font-size="14.00" fill="#000000">b4c37</text>
<text text-anchor="middle" x="56.5" y="-81.8" font-family="Times,serif" font-size="14.00" fill="#000000">Second commit</text>
</g>
<!-- a380b&#45;&gt;b4c37 -->
<g id="edge4" class="edge">
<title>a380b&#45;&gt;b4c37</title>
<path fill="none" stroke="#000000" d="M56.5,-147.9432C56.5,-140.1493 56.5,-130.9538 56.5,-122.3381"/>
<polygon fill="#000000" stroke="#000000" points="60.0001,-122.2494 56.5,-112.2495 53.0001,-122.2495 60.0001,-122.2494"/>
</g>
<!-- HEAD -->
<g id="node3" class="node">
<title>HEAD</title>
<path fill="#fff68f" stroke="#cdbe70" d="M71.5,-330C71.5,-330 41.5,-330 41.5,-330 35.5,-330 29.5,-324 29.5,-318 29.5,-318 29.5,-306 29.5,-306 29.5,-300 35.5,-294 41.5,-294 41.5,-294 71.5,-294 71.5,-294 77.5,-294 83.5,-300 83.5,-306 83.5,-306 83.5,-318 83.5,-318 83.5,-324 77.5,-330 71.5,-330"/>
<text text-anchor="middle" x="56.5" y="-308.3" font-family="Times,serif" font-size="14.00" fill="#000000">HEAD</text>
</g>
<!-- HEAD&#45;&gt;master -->
<g id="edge2" class="edge">
<title>HEAD&#45;&gt;master</title>
<path fill="none" stroke="#000000" d="M56.5,-293.8314C56.5,-286.131 56.5,-276.9743 56.5,-268.4166"/>
<polygon fill="#000000" stroke="#000000" points="60.0001,-268.4132 56.5,-258.4133 53.0001,-268.4133 60.0001,-268.4132"/>
</g>
<!-- 76c16 -->
<g id="node4" class="node">
<title>76c16</title>
<path fill="#c6e2ff" stroke="#4a708b" d="M88.5,-38C88.5,-38 24.5,-38 24.5,-38 18.5,-38 12.5,-32 12.5,-26 12.5,-26 12.5,-12 12.5,-12 12.5,-6 18.5,0 24.5,0 24.5,0 88.5,0 88.5,0 94.5,0 100.5,-6 100.5,-12 100.5,-12 100.5,-26 100.5,-26 100.5,-32 94.5,-38 88.5,-38"/>
<text text-anchor="middle" x="56.5" y="-22.8" font-family="Times,serif" font-size="14.00" fill="#000000">76c16</text>
<text text-anchor="middle" x="56.5" y="-7.8" font-family="Times,serif" font-size="14.00" fill="#000000">First commit</text>
</g>
<!-- b4c37&#45;&gt;76c16 -->
<g id="edge3" class="edge">
<title>b4c37&#45;&gt;76c16</title>
<path fill="none" stroke="#000000" d="M56.5,-73.9432C56.5,-66.1493 56.5,-56.9538 56.5,-48.3381"/>
<polygon fill="#000000" stroke="#000000" points="60.0001,-48.2494 56.5,-38.2495 53.0001,-48.2495 60.0001,-48.2494"/>
</g>
</g>
</svg>
