<?xml version="1.0" encoding="UTF-8" standalone="no"?>
<!DOCTYPE svg PUBLIC "-//W3C//DTD SVG 1.1//EN"
 "http://www.w3.org/Graphics/SVG/1.1/DTD/svg11.dtd">
<!-- Generated by graphviz version 2.40.1 (20161225.0304)
 -->
<!-- Title: git history Pages: 1 -->
<svg width="258pt" height="412pt"
 viewBox="0.00 0.00 257.50 412.00" xmlns="http://www.w3.org/2000/svg" xmlns:xlink="http://www.w3.org/1999/xlink">
<g id="graph0" class="graph" transform="scale(1 1) rotate(0) translate(4 408)">
<title>git history</title>
<polygon fill="#ffffff" stroke="transparent" points="-4,4 -4,-408 253.5,-408 253.5,4 -4,4"/>
<!-- master -->
<g id="node1" class="node">
<title>master</title>
<path fill="#ffb6c1" stroke="#8b3a3a" d="M183.5,-332C183.5,-332 153.5,-332 153.5,-332 147.5,-332 141.5,-326 141.5,-320 141.5,-320 141.5,-308 141.5,-308 141.5,-302 147.5,-296 153.5,-296 153.5,-296 183.5,-296 183.5,-296 189.5,-296 195.5,-302 195.5,-308 195.5,-308 195.5,-320 195.5,-320 195.5,-326 189.5,-332 183.5,-332"/>
<text text-anchor="middle" x="168.5" y="-310.3" font-family="Times,serif" font-size="14.00" fill="#000000">master</text>
</g>
<!-- dead7 -->
<g id="node2" class="node">
<title>dead7</title>
<path fill="#c6e2ff" stroke="#4a708b" d="M161,-260C161,-260 86,-260 86,-260 80,-260 74,-254 74,-248 74,-248 74,-234 74,-234 74,-228 80,-222 86,-222 86,-222 161,-222 161,-222 167,-222 173,-228 173,-234 173,-234 173,-248 173,-248 173,-254 167,-260 161,-260"/>
<text text-anchor="middle" x="123.5" y="-244.8" font-family="Times,serif" font-size="14.00" fill="#000000">dead7</text>
<text text-anchor="middle" x="123.5" y="-229.8" font-family="Times,serif" font-size="14.00" fill="#000000">Merge commit</text>
</g>
<!-- master&#45;&gt;dead7 -->
<g id="edge1" class="edge">
<title>master&#45;&gt;dead7</title>
<path fill="none" stroke="#000000" d="M157.3764,-295.9551C152.3402,-287.7852 146.2721,-277.9413 140.6713,-268.8557"/>
<polygon fill="#000000" stroke="#000000" points="143.5088,-266.7888 135.2819,-260.1128 137.55,-270.4621 143.5088,-266.7888"/>
</g>
<!-- a380b -->
<g id="node8" class="node">
<title>a380b</title>
<path fill="#c6e2ff" stroke="#4a708b" d="M101,-186C101,-186 12,-186 12,-186 6,-186 0,-180 0,-174 0,-174 0,-160 0,-160 0,-154 6,-148 12,-148 12,-148 101,-148 101,-148 107,-148 113,-154 113,-160 113,-160 113,-174 113,-174 113,-180 107,-186 101,-186"/>
<text text-anchor="middle" x="56.5" y="-170.8" font-family="Times,serif" font-size="14.00" fill="#000000">a380b</text>
<text text-anchor="middle" x="56.5" y="-155.8" font-family="Times,serif" font-size="14.00" fill="#000000">Commit message</text>
</g>
<!-- dead7&#45;&gt;a380b -->
<g id="edge9" class="edge">
<title>dead7&#45;&gt;a380b</title>
<path fill="none" stroke="#000000" d="M106.2458,-221.9432C98.4913,-213.3784 89.2044,-203.1213 80.7655,-193.8007"/>
<polygon fill="#000000" stroke="#000000" points="83.2349,-191.3133 73.9286,-186.2495 78.0458,-196.0116 83.2349,-191.3133"/>
</g>
<!-- 747bf -->
<g id="node9" class="node">
<title>747bf</title>
<path fill="#c6e2ff" stroke="#4a708b" d="M237.5,-186C237.5,-186 143.5,-186 143.5,-186 137.5,-186 131.5,-180 131.5,-174 131.5,-174 131.5,-160 131.5,-160 131.5,-154 137.5,-148 143.5,-148 143.5,-148 237.5,-148 237.5,-148 243.5,-148 249.5,-154 249.5,-160 249.5,-160 249.5,-174 249.5,-174 249.5,-180 243.5,-186 237.5,-186"/>
<text text-anchor="middle" x="190.5" y="-170.8" font-family="Times,serif" font-size="14.00" fill="#000000">747bf</text>
<text text-anchor="middle" x="190.5" y="-155.8" font-family="Times,serif" font-size="14.00" fill="#000000">Your modification</text>
</g>
<!-- dead7&#45;&gt;747bf -->
<g id="edge8" class="edge">
<title>dead7&#45;&gt;747bf</title>
<path fill="none" stroke="#000000" d="M140.7542,-221.9432C148.5087,-213.3784 157.7956,-203.1213 166.2345,-193.8007"/>
<polygon fill="#000000" stroke="#000000" points="168.9542,-196.0116 173.0714,-186.2495 163.7651,-191.3133 168.9542,-196.0116"/>
</g>
<!-- HEAD -->
<g id="node3" class="node">
<title>HEAD</title>
<path fill="#fff68f" stroke="#cdbe70" d="M183.5,-404C183.5,-404 153.5,-404 153.5,-404 147.5,-404 141.5,-398 141.5,-392 141.5,-392 141.5,-380 141.5,-380 141.5,-374 147.5,-368 153.5,-368 153.5,-368 183.5,-368 183.5,-368 189.5,-368 195.5,-374 195.5,-380 195.5,-380 195.5,-392 195.5,-392 195.5,-398 189.5,-404 183.5,-404"/>
<text text-anchor="middle" x="168.5" y="-382.3" font-family="Times,serif" font-size="14.00" fill="#000000">HEAD</text>
</g>
<!-- HEAD&#45;&gt;master -->
<g id="edge2" class="edge">
<title>HEAD&#45;&gt;master</title>
<path fill="none" stroke="#000000" d="M168.5,-367.8314C168.5,-360.131 168.5,-350.9743 168.5,-342.4166"/>
<polygon fill="#000000" stroke="#000000" points="172.0001,-342.4132 168.5,-332.4133 165.0001,-342.4133 172.0001,-342.4132"/>
</g>
<!-- origin/master -->
<g id="node4" class="node">
<title>origin/master</title>
<path fill="#ffb6c1" stroke="#8b3a3a" d="M111,-332C111,-332 46,-332 46,-332 40,-332 34,-326 34,-320 34,-320 34,-308 34,-308 34,-302 40,-296 46,-296 46,-296 111,-296 111,-296 117,-296 123,-302 123,-308 123,-308 123,-320 123,-320 123,-326 117,-332 111,-332"/>
<text text-anchor="middle" x="78.5" y="-310.3" font-family="Times,serif" font-size="14.00" fill="#000000">origin/master</text>
</g>
<!-- origin/master&#45;&gt;dead7 -->
<g id="edge3" class="edge">
<title>origin/master&#45;&gt;dead7</title>
<path fill="none" stroke="#000000" d="M89.6236,-295.9551C94.6598,-287.7852 100.7279,-277.9413 106.3287,-268.8557"/>
<polygon fill="#000000" stroke="#000000" points="109.45,-270.4621 111.7181,-260.1128 103.4912,-266.7888 109.45,-270.4621"/>
</g>
<!-- origin -->
<g id="node5" class="node">
<title>origin</title>
<path fill="#fff68f" stroke="#cdbe70" d="M93.5,-404C93.5,-404 63.5,-404 63.5,-404 57.5,-404 51.5,-398 51.5,-392 51.5,-392 51.5,-380 51.5,-380 51.5,-374 57.5,-368 63.5,-368 63.5,-368 93.5,-368 93.5,-368 99.5,-368 105.5,-374 105.5,-380 105.5,-380 105.5,-392 105.5,-392 105.5,-398 99.5,-404 93.5,-404"/>
<text text-anchor="middle" x="78.5" y="-382.3" font-family="Times,serif" font-size="14.00" fill="#000000">origin</text>
</g>
<!-- origin&#45;&gt;origin/master -->
<g id="edge4" class="edge">
<title>origin&#45;&gt;origin/master</title>
<path fill="none" stroke="#000000" d="M78.5,-367.8314C78.5,-360.131 78.5,-350.9743 78.5,-342.4166"/>
<polygon fill="#000000" stroke="#000000" points="82.0001,-342.4132 78.5,-332.4133 75.0001,-342.4133 82.0001,-342.4132"/>
</g>
<!-- 76c16 -->
<g id="node6" class="node">
<title>76c16</title>
<path fill="#c6e2ff" stroke="#4a708b" d="M155.5,-38C155.5,-38 91.5,-38 91.5,-38 85.5,-38 79.5,-32 79.5,-26 79.5,-26 79.5,-12 79.5,-12 79.5,-6 85.5,0 91.5,0 91.5,0 155.5,0 155.5,0 161.5,0 167.5,-6 167.5,-12 167.5,-12 167.5,-26 167.5,-26 167.5,-32 161.5,-38 155.5,-38"/>
<text text-anchor="middle" x="123.5" y="-22.8" font-family="Times,serif" font-size="14.00" fill="#000000">76c16</text>
<text text-anchor="middle" x="123.5" y="-7.8" font-family="Times,serif" font-size="14.00" fill="#000000">First commit</text>
</g>
<!-- b4c37 -->
<g id="node7" class="node">
<title>b4c37</title>
<path fill="#c6e2ff" stroke="#4a708b" d="M163,-112C163,-112 84,-112 84,-112 78,-112 72,-106 72,-100 72,-100 72,-86 72,-86 72,-80 78,-74 84,-74 84,-74 163,-74 163,-74 169,-74 175,-80 175,-86 175,-86 175,-100 175,-100 175,-106 169,-112 163,-112"/>
<text text-anchor="middle" x="123.5" y="-96.8" font-family="Times,serif" font-size="14.00" fill="#000000">b4c37</text>
<text text-anchor="middle" x="123.5" y="-81.8" font-family="Times,serif" font-size="14.00" fill="#000000">Second commit</text>
</g>
<!-- b4c37&#45;&gt;76c16 -->
<g id="edge5" class="edge">
<title>b4c37&#45;&gt;76c16</title>
<path fill="none" stroke="#000000" d="M123.5,-73.9432C123.5,-66.1493 123.5,-56.9538 123.5,-48.3381"/>
<polygon fill="#000000" stroke="#000000" points="127.0001,-48.2494 123.5,-38.2495 120.0001,-48.2495 127.0001,-48.2494"/>
</g>
<!-- a380b&#45;&gt;b4c37 -->
<g id="edge6" class="edge">
<title>a380b&#45;&gt;b4c37</title>
<path fill="none" stroke="#000000" d="M73.7542,-147.9432C81.5087,-139.3784 90.7956,-129.1213 99.2345,-119.8007"/>
<polygon fill="#000000" stroke="#000000" points="101.9542,-122.0116 106.0714,-112.2495 96.7651,-117.3133 101.9542,-122.0116"/>
</g>
<!-- 747bf&#45;&gt;b4c37 -->
<g id="edge7" class="edge">
<title>747bf&#45;&gt;b4c37</title>
<path fill="none" stroke="#000000" d="M173.2458,-147.9432C165.4913,-139.3784 156.2044,-129.1213 147.7655,-119.8007"/>
<polygon fill="#000000" stroke="#000000" points="150.2349,-117.3133 140.9286,-112.2495 145.0458,-122.0116 150.2349,-117.3133"/>
</g>
</g>
</svg>
