<?xml version="1.0" encoding="UTF-8" standalone="no"?>
<!DOCTYPE svg PUBLIC "-//W3C//DTD SVG 1.1//EN"
 "http://www.w3.org/Graphics/SVG/1.1/DTD/svg11.dtd">
<!-- Generated by graphviz version 2.40.1 (20161225.0304)
 -->
<!-- Title: git history Pages: 1 -->
<svg width="194pt" height="338pt"
 viewBox="0.00 0.00 193.50 338.00" xmlns="http://www.w3.org/2000/svg" xmlns:xlink="http://www.w3.org/1999/xlink">
<g id="graph0" class="graph" transform="scale(1 1) rotate(0) translate(4 334)">
<title>git history</title>
<polygon fill="#ffffff" stroke="transparent" points="-4,4 -4,-334 189.5,-334 189.5,4 -4,4"/>
<!-- master -->
<g id="node1" class="node">
<title>master</title>
<path fill="#ffb6c1" stroke="#8b3a3a" d="M173.5,-185C173.5,-185 143.5,-185 143.5,-185 137.5,-185 131.5,-179 131.5,-173 131.5,-173 131.5,-161 131.5,-161 131.5,-155 137.5,-149 143.5,-149 143.5,-149 173.5,-149 173.5,-149 179.5,-149 185.5,-155 185.5,-161 185.5,-161 185.5,-173 185.5,-173 185.5,-179 179.5,-185 173.5,-185"/>
<text text-anchor="middle" x="158.5" y="-163.3" font-family="Times,serif" font-size="14.00" fill="#000000">master</text>
</g>
<!-- b4c37 -->
<g id="node2" class="node">
<title>b4c37</title>
<path fill="#c6e2ff" stroke="#4a708b" d="M147,-112C147,-112 68,-112 68,-112 62,-112 56,-106 56,-100 56,-100 56,-86 56,-86 56,-80 62,-74 68,-74 68,-74 147,-74 147,-74 153,-74 159,-80 159,-86 159,-86 159,-100 159,-100 159,-106 153,-112 147,-112"/>
<text text-anchor="middle" x="107.5" y="-96.8" font-family="Times,serif" font-size="14.00" fill="#000000">b4c37</text>
<text text-anchor="middle" x="107.5" y="-81.8" font-family="Times,serif" font-size="14.00" fill="#000000">Second commit</text>
</g>
<!-- master&#45;&gt;b4c37 -->
<g id="edge1" class="edge">
<title>master&#45;&gt;b4c37</title>
<path fill="none" stroke="#000000" d="M145.8933,-148.7079C140.0215,-140.188 132.912,-129.8723 126.4148,-120.4449"/>
<polygon fill="#000000" stroke="#000000" points="129.2298,-118.3617 120.6731,-112.114 123.466,-122.3341 129.2298,-118.3617"/>
</g>
<!-- 76c16 -->
<g id="node7" class="node">
<title>76c16</title>
<path fill="#c6e2ff" stroke="#4a708b" d="M139.5,-38C139.5,-38 75.5,-38 75.5,-38 69.5,-38 63.5,-32 63.5,-26 63.5,-26 63.5,-12 63.5,-12 63.5,-6 69.5,0 75.5,0 75.5,0 139.5,0 139.5,0 145.5,0 151.5,-6 151.5,-12 151.5,-12 151.5,-26 151.5,-26 151.5,-32 145.5,-38 139.5,-38"/>
<text text-anchor="middle" x="107.5" y="-22.8" font-family="Times,serif" font-size="14.00" fill="#000000">76c16</text>
<text text-anchor="middle" x="107.5" y="-7.8" font-family="Times,serif" font-size="14.00" fill="#000000">First commit</text>
</g>
<!-- b4c37&#45;&gt;76c16 -->
<g id="edge5" class="edge">
<title>b4c37&#45;&gt;76c16</title>
<path fill="none" stroke="#000000" d="M107.5,-73.9432C107.5,-66.1493 107.5,-56.9538 107.5,-48.3381"/>
<polygon fill="#000000" stroke="#000000" points="111.0001,-48.2494 107.5,-38.2495 104.0001,-48.2495 111.0001,-48.2494"/>
</g>
<!-- HEAD -->
<g id="node3" class="node">
<title>HEAD</title>
<path fill="#fff68f" stroke="#cdbe70" d="M173.5,-258C173.5,-258 143.5,-258 143.5,-258 137.5,-258 131.5,-252 131.5,-246 131.5,-246 131.5,-234 131.5,-234 131.5,-228 137.5,-222 143.5,-222 143.5,-222 173.5,-222 173.5,-222 179.5,-222 185.5,-228 185.5,-234 185.5,-234 185.5,-246 185.5,-246 185.5,-252 179.5,-258 173.5,-258"/>
<text text-anchor="middle" x="158.5" y="-236.3" font-family="Times,serif" font-size="14.00" fill="#000000">HEAD</text>
</g>
<!-- HEAD&#45;&gt;master -->
<g id="edge2" class="edge">
<title>HEAD&#45;&gt;master</title>
<path fill="none" stroke="#000000" d="M158.5,-221.9551C158.5,-213.8828 158.5,-204.1764 158.5,-195.1817"/>
<polygon fill="#000000" stroke="#000000" points="162.0001,-195.0903 158.5,-185.0904 155.0001,-195.0904 162.0001,-195.0903"/>
</g>
<!-- origin/master -->
<g id="node4" class="node">
<title>origin/master</title>
<path fill="#ffb6c1" stroke="#8b3a3a" d="M89,-258C89,-258 24,-258 24,-258 18,-258 12,-252 12,-246 12,-246 12,-234 12,-234 12,-228 18,-222 24,-222 24,-222 89,-222 89,-222 95,-222 101,-228 101,-234 101,-234 101,-246 101,-246 101,-252 95,-258 89,-258"/>
<text text-anchor="middle" x="56.5" y="-236.3" font-family="Times,serif" font-size="14.00" fill="#000000">origin/master</text>
</g>
<!-- a380b -->
<g id="node5" class="node">
<title>a380b</title>
<path fill="#c6e2ff" stroke="#4a708b" d="M101,-186C101,-186 12,-186 12,-186 6,-186 0,-180 0,-174 0,-174 0,-160 0,-160 0,-154 6,-148 12,-148 12,-148 101,-148 101,-148 107,-148 113,-154 113,-160 113,-160 113,-174 113,-174 113,-180 107,-186 101,-186"/>
<text text-anchor="middle" x="56.5" y="-170.8" font-family="Times,serif" font-size="14.00" fill="#000000">a380b</text>
<text text-anchor="middle" x="56.5" y="-155.8" font-family="Times,serif" font-size="14.00" fill="#000000">Commit message</text>
</g>
<!-- origin/master&#45;&gt;a380b -->
<g id="edge3" class="edge">
<title>origin/master&#45;&gt;a380b</title>
<path fill="none" stroke="#000000" d="M56.5,-221.9551C56.5,-214.2107 56.5,-204.9622 56.5,-196.2811"/>
<polygon fill="#000000" stroke="#000000" points="60.0001,-196.1128 56.5,-186.1128 53.0001,-196.1129 60.0001,-196.1128"/>
</g>
<!-- a380b&#45;&gt;b4c37 -->
<g id="edge6" class="edge">
<title>a380b&#45;&gt;b4c37</title>
<path fill="none" stroke="#000000" d="M69.6338,-147.9432C75.3594,-139.6354 82.1825,-129.7352 88.4494,-120.642"/>
<polygon fill="#000000" stroke="#000000" points="91.4406,-122.4696 94.2335,-112.2495 85.6768,-118.4972 91.4406,-122.4696"/>
</g>
<!-- origin -->
<g id="node6" class="node">
<title>origin</title>
<path fill="#fff68f" stroke="#cdbe70" d="M71.5,-330C71.5,-330 41.5,-330 41.5,-330 35.5,-330 29.5,-324 29.5,-318 29.5,-318 29.5,-306 29.5,-306 29.5,-300 35.5,-294 41.5,-294 41.5,-294 71.5,-294 71.5,-294 77.5,-294 83.5,-300 83.5,-306 83.5,-306 83.5,-318 83.5,-318 83.5,-324 77.5,-330 71.5,-330"/>
<text text-anchor="middle" x="56.5" y="-308.3" font-family="Times,serif" font-size="14.00" fill="#000000">origin</text>
</g>
<!-- origin&#45;&gt;origin/master -->
<g id="edge4" class="edge">
<title>origin&#45;&gt;origin/master</title>
<path fill="none" stroke="#000000" d="M56.5,-293.8314C56.5,-286.131 56.5,-276.9743 56.5,-268.4166"/>
<polygon fill="#000000" stroke="#000000" points="60.0001,-268.4132 56.5,-258.4133 53.0001,-268.4133 60.0001,-268.4132"/>
</g>
</g>
</svg>
