<?xml version="1.0" encoding="UTF-8" standalone="no"?>
<!DOCTYPE svg PUBLIC "-//W3C//DTD SVG 1.1//EN"
 "http://www.w3.org/Graphics/SVG/1.1/DTD/svg11.dtd">
<!-- Generated by graphviz version 2.40.1 (20161225.0304)
 -->
<!-- Title: git history Pages: 1 -->
<svg width="258pt" height="338pt"
 viewBox="0.00 0.00 257.50 338.00" xmlns="http://www.w3.org/2000/svg" xmlns:xlink="http://www.w3.org/1999/xlink">
<g id="graph0" class="graph" transform="scale(1 1) rotate(0) translate(4 334)">
<title>git history</title>
<polygon fill="#ffffff" stroke="transparent" points="-4,4 -4,-334 253.5,-334 253.5,4 -4,4"/>
<!-- master -->
<g id="node1" class="node">
<title>master</title>
<path fill="#ffb6c1" stroke="#8b3a3a" d="M205.5,-258C205.5,-258 175.5,-258 175.5,-258 169.5,-258 163.5,-252 163.5,-246 163.5,-246 163.5,-234 163.5,-234 163.5,-228 169.5,-222 175.5,-222 175.5,-222 205.5,-222 205.5,-222 211.5,-222 217.5,-228 217.5,-234 217.5,-234 217.5,-246 217.5,-246 217.5,-252 211.5,-258 205.5,-258"/>
<text text-anchor="middle" x="190.5" y="-236.3" font-family="Times,serif" font-size="14.00" fill="#000000">master</text>
</g>
<!-- 747bf -->
<g id="node2" class="node">
<title>747bf</title>
<path fill="#c6e2ff" stroke="#4a708b" d="M237.5,-186C237.5,-186 143.5,-186 143.5,-186 137.5,-186 131.5,-180 131.5,-174 131.5,-174 131.5,-160 131.5,-160 131.5,-154 137.5,-148 143.5,-148 143.5,-148 237.5,-148 237.5,-148 243.5,-148 249.5,-154 249.5,-160 249.5,-160 249.5,-174 249.5,-174 249.5,-180 243.5,-186 237.5,-186"/>
<text text-anchor="middle" x="190.5" y="-170.8" font-family="Times,serif" font-size="14.00" fill="#000000">747bf</text>
<text text-anchor="middle" x="190.5" y="-155.8" font-family="Times,serif" font-size="14.00" fill="#000000">Your modification</text>
</g>
<!-- master&#45;&gt;747bf -->
<g id="edge1" class="edge">
<title>master&#45;&gt;747bf</title>
<path fill="none" stroke="#000000" d="M190.5,-221.9551C190.5,-214.2107 190.5,-204.9622 190.5,-196.2811"/>
<polygon fill="#000000" stroke="#000000" points="194.0001,-196.1128 190.5,-186.1128 187.0001,-196.1129 194.0001,-196.1128"/>
</g>
<!-- b4c37 -->
<g id="node8" class="node">
<title>b4c37</title>
<path fill="#c6e2ff" stroke="#4a708b" d="M163,-112C163,-112 84,-112 84,-112 78,-112 72,-106 72,-100 72,-100 72,-86 72,-86 72,-80 78,-74 84,-74 84,-74 163,-74 163,-74 169,-74 175,-80 175,-86 175,-86 175,-100 175,-100 175,-106 169,-112 163,-112"/>
<text text-anchor="middle" x="123.5" y="-96.8" font-family="Times,serif" font-size="14.00" fill="#000000">b4c37</text>
<text text-anchor="middle" x="123.5" y="-81.8" font-family="Times,serif" font-size="14.00" fill="#000000">Second commit</text>
</g>
<!-- 747bf&#45;&gt;b4c37 -->
<g id="edge7" class="edge">
<title>747bf&#45;&gt;b4c37</title>
<path fill="none" stroke="#000000" d="M173.2458,-147.9432C165.4913,-139.3784 156.2044,-129.1213 147.7655,-119.8007"/>
<polygon fill="#000000" stroke="#000000" points="150.2349,-117.3133 140.9286,-112.2495 145.0458,-122.0116 150.2349,-117.3133"/>
</g>
<!-- HEAD -->
<g id="node3" class="node">
<title>HEAD</title>
<path fill="#fff68f" stroke="#cdbe70" d="M205.5,-330C205.5,-330 175.5,-330 175.5,-330 169.5,-330 163.5,-324 163.5,-318 163.5,-318 163.5,-306 163.5,-306 163.5,-300 169.5,-294 175.5,-294 175.5,-294 205.5,-294 205.5,-294 211.5,-294 217.5,-300 217.5,-306 217.5,-306 217.5,-318 217.5,-318 217.5,-324 211.5,-330 205.5,-330"/>
<text text-anchor="middle" x="190.5" y="-308.3" font-family="Times,serif" font-size="14.00" fill="#000000">HEAD</text>
</g>
<!-- HEAD&#45;&gt;master -->
<g id="edge2" class="edge">
<title>HEAD&#45;&gt;master</title>
<path fill="none" stroke="#000000" d="M190.5,-293.8314C190.5,-286.131 190.5,-276.9743 190.5,-268.4166"/>
<polygon fill="#000000" stroke="#000000" points="194.0001,-268.4132 190.5,-258.4133 187.0001,-268.4133 194.0001,-268.4132"/>
</g>
<!-- origin/master -->
<g id="node4" class="node">
<title>origin/master</title>
<path fill="#ffb6c1" stroke="#8b3a3a" d="M89,-258C89,-258 24,-258 24,-258 18,-258 12,-252 12,-246 12,-246 12,-234 12,-234 12,-228 18,-222 24,-222 24,-222 89,-222 89,-222 95,-222 101,-228 101,-234 101,-234 101,-246 101,-246 101,-252 95,-258 89,-258"/>
<text text-anchor="middle" x="56.5" y="-236.3" font-family="Times,serif" font-size="14.00" fill="#000000">origin/master</text>
</g>
<!-- a380b -->
<g id="node5" class="node">
<title>a380b</title>
<path fill="#c6e2ff" stroke="#4a708b" d="M101,-186C101,-186 12,-186 12,-186 6,-186 0,-180 0,-174 0,-174 0,-160 0,-160 0,-154 6,-148 12,-148 12,-148 101,-148 101,-148 107,-148 113,-154 113,-160 113,-160 113,-174 113,-174 113,-180 107,-186 101,-186"/>
<text text-anchor="middle" x="56.5" y="-170.8" font-family="Times,serif" font-size="14.00" fill="#000000">a380b</text>
<text text-anchor="middle" x="56.5" y="-155.8" font-family="Times,serif" font-size="14.00" fill="#000000">Commit message</text>
</g>
<!-- origin/master&#45;&gt;a380b -->
<g id="edge3" class="edge">
<title>origin/master&#45;&gt;a380b</title>
<path fill="none" stroke="#000000" d="M56.5,-221.9551C56.5,-214.2107 56.5,-204.9622 56.5,-196.2811"/>
<polygon fill="#000000" stroke="#000000" points="60.0001,-196.1128 56.5,-186.1128 53.0001,-196.1129 60.0001,-196.1128"/>
</g>
<!-- a380b&#45;&gt;b4c37 -->
<g id="edge6" class="edge">
<title>a380b&#45;&gt;b4c37</title>
<path fill="none" stroke="#000000" d="M73.7542,-147.9432C81.5087,-139.3784 90.7956,-129.1213 99.2345,-119.8007"/>
<polygon fill="#000000" stroke="#000000" points="101.9542,-122.0116 106.0714,-112.2495 96.7651,-117.3133 101.9542,-122.0116"/>
</g>
<!-- origin -->
<g id="node6" class="node">
<title>origin</title>
<path fill="#fff68f" stroke="#cdbe70" d="M71.5,-330C71.5,-330 41.5,-330 41.5,-330 35.5,-330 29.5,-324 29.5,-318 29.5,-318 29.5,-306 29.5,-306 29.5,-300 35.5,-294 41.5,-294 41.5,-294 71.5,-294 71.5,-294 77.5,-294 83.5,-300 83.5,-306 83.5,-306 83.5,-318 83.5,-318 83.5,-324 77.5,-330 71.5,-330"/>
<text text-anchor="middle" x="56.5" y="-308.3" font-family="Times,serif" font-size="14.00" fill="#000000">origin</text>
</g>
<!-- origin&#45;&gt;origin/master -->
<g id="edge4" class="edge">
<title>origin&#45;&gt;origin/master</title>
<path fill="none" stroke="#000000" d="M56.5,-293.8314C56.5,-286.131 56.5,-276.9743 56.5,-268.4166"/>
<polygon fill="#000000" stroke="#000000" points="60.0001,-268.4132 56.5,-258.4133 53.0001,-268.4133 60.0001,-268.4132"/>
</g>
<!-- 76c16 -->
<g id="node7" class="node">
<title>76c16</title>
<path fill="#c6e2ff" stroke="#4a708b" d="M155.5,-38C155.5,-38 91.5,-38 91.5,-38 85.5,-38 79.5,-32 79.5,-26 79.5,-26 79.5,-12 79.5,-12 79.5,-6 85.5,0 91.5,0 91.5,0 155.5,0 155.5,0 161.5,0 167.5,-6 167.5,-12 167.5,-12 167.5,-26 167.5,-26 167.5,-32 161.5,-38 155.5,-38"/>
<text text-anchor="middle" x="123.5" y="-22.8" font-family="Times,serif" font-size="14.00" fill="#000000">76c16</text>
<text text-anchor="middle" x="123.5" y="-7.8" font-family="Times,serif" font-size="14.00" fill="#000000">First commit</text>
</g>
<!-- b4c37&#45;&gt;76c16 -->
<g id="edge5" class="edge">
<title>b4c37&#45;&gt;76c16</title>
<path fill="none" stroke="#000000" d="M123.5,-73.9432C123.5,-66.1493 123.5,-56.9538 123.5,-48.3381"/>
<polygon fill="#000000" stroke="#000000" points="127.0001,-48.2494 123.5,-38.2495 120.0001,-48.2495 127.0001,-48.2494"/>
</g>
</g>
</svg>
