<?xml version="1.0" encoding="UTF-8" standalone="no"?>
<!DOCTYPE svg PUBLIC "-//W3C//DTD SVG 1.1//EN"
 "http://www.w3.org/Graphics/SVG/1.1/DTD/svg11.dtd">
<!-- Generated by graphviz version 2.40.1 (20161225.0304)
 -->
<!-- Title: git history Pages: 1 -->
<svg width="258pt" height="412pt"
 viewBox="0.00 0.00 257.50 412.00" xmlns="http://www.w3.org/2000/svg" xmlns:xlink="http://www.w3.org/1999/xlink">
<g id="graph0" class="graph" transform="scale(1 1) rotate(0) translate(4 408)">
<title>git history</title>
<polygon fill="#ffffff" stroke="transparent" points="-4,4 -4,-408 253.5,-408 253.5,4 -4,4"/>
<!-- master -->
<g id="node1" class="node">
<title>master</title>
<path fill="#ffb6c1" stroke="#8b3a3a" d="M194.5,-332C194.5,-332 164.5,-332 164.5,-332 158.5,-332 152.5,-326 152.5,-320 152.5,-320 152.5,-308 152.5,-308 152.5,-302 158.5,-296 164.5,-296 164.5,-296 194.5,-296 194.5,-296 200.5,-296 206.5,-302 206.5,-308 206.5,-308 206.5,-320 206.5,-320 206.5,-326 200.5,-332 194.5,-332"/>
<text text-anchor="middle" x="179.5" y="-310.3" font-family="Times,serif" font-size="14.00" fill="#000000">master</text>
</g>
<!-- dead7 -->
<g id="node2" class="node">
<title>dead7</title>
<path fill="#c6e2ff" stroke="#4a708b" d="M217,-260C217,-260 142,-260 142,-260 136,-260 130,-254 130,-248 130,-248 130,-234 130,-234 130,-228 136,-222 142,-222 142,-222 217,-222 217,-222 223,-222 229,-228 229,-234 229,-234 229,-248 229,-248 229,-254 223,-260 217,-260"/>
<text text-anchor="middle" x="179.5" y="-244.8" font-family="Times,serif" font-size="14.00" fill="#000000">dead7</text>
<text text-anchor="middle" x="179.5" y="-229.8" font-family="Times,serif" font-size="14.00" fill="#000000">Merge commit</text>
</g>
<!-- master&#45;&gt;dead7 -->
<g id="edge1" class="edge">
<title>master&#45;&gt;dead7</title>
<path fill="none" stroke="#000000" d="M179.5,-295.9551C179.5,-288.2107 179.5,-278.9622 179.5,-270.2811"/>
<polygon fill="#000000" stroke="#000000" points="183.0001,-270.1128 179.5,-260.1128 176.0001,-270.1129 183.0001,-270.1128"/>
</g>
<!-- a380b -->
<g id="node5" class="node">
<title>a380b</title>
<path fill="#c6e2ff" stroke="#4a708b" d="M101,-186C101,-186 12,-186 12,-186 6,-186 0,-180 0,-174 0,-174 0,-160 0,-160 0,-154 6,-148 12,-148 12,-148 101,-148 101,-148 107,-148 113,-154 113,-160 113,-160 113,-174 113,-174 113,-180 107,-186 101,-186"/>
<text text-anchor="middle" x="56.5" y="-170.8" font-family="Times,serif" font-size="14.00" fill="#000000">a380b</text>
<text text-anchor="middle" x="56.5" y="-155.8" font-family="Times,serif" font-size="14.00" fill="#000000">Commit message</text>
</g>
<!-- dead7&#45;&gt;a380b -->
<g id="edge9" class="edge">
<title>dead7&#45;&gt;a380b</title>
<path fill="none" stroke="#000000" d="M147.8244,-221.9432C132.4496,-212.6933 113.7935,-201.4693 97.3611,-191.5831"/>
<polygon fill="#000000" stroke="#000000" points="98.8688,-188.4056 88.4957,-186.2495 95.2602,-194.4038 98.8688,-188.4056"/>
</g>
<!-- 747bf -->
<g id="node9" class="node">
<title>747bf</title>
<path fill="#c6e2ff" stroke="#4a708b" d="M237.5,-186C237.5,-186 143.5,-186 143.5,-186 137.5,-186 131.5,-180 131.5,-174 131.5,-174 131.5,-160 131.5,-160 131.5,-154 137.5,-148 143.5,-148 143.5,-148 237.5,-148 237.5,-148 243.5,-148 249.5,-154 249.5,-160 249.5,-160 249.5,-174 249.5,-174 249.5,-180 243.5,-186 237.5,-186"/>
<text text-anchor="middle" x="190.5" y="-170.8" font-family="Times,serif" font-size="14.00" fill="#000000">747bf</text>
<text text-anchor="middle" x="190.5" y="-155.8" font-family="Times,serif" font-size="14.00" fill="#000000">Your modification</text>
</g>
<!-- dead7&#45;&gt;747bf -->
<g id="edge8" class="edge">
<title>dead7&#45;&gt;747bf</title>
<path fill="none" stroke="#000000" d="M182.3328,-221.9432C183.4913,-214.1493 184.8582,-204.9538 186.1389,-196.3381"/>
<polygon fill="#000000" stroke="#000000" points="189.6301,-196.6554 187.6386,-186.2495 182.7062,-195.6261 189.6301,-196.6554"/>
</g>
<!-- HEAD -->
<g id="node3" class="node">
<title>HEAD</title>
<path fill="#fff68f" stroke="#cdbe70" d="M194.5,-404C194.5,-404 164.5,-404 164.5,-404 158.5,-404 152.5,-398 152.5,-392 152.5,-392 152.5,-380 152.5,-380 152.5,-374 158.5,-368 164.5,-368 164.5,-368 194.5,-368 194.5,-368 200.5,-368 206.5,-374 206.5,-380 206.5,-380 206.5,-392 206.5,-392 206.5,-398 200.5,-404 194.5,-404"/>
<text text-anchor="middle" x="179.5" y="-382.3" font-family="Times,serif" font-size="14.00" fill="#000000">HEAD</text>
</g>
<!-- HEAD&#45;&gt;master -->
<g id="edge2" class="edge">
<title>HEAD&#45;&gt;master</title>
<path fill="none" stroke="#000000" d="M179.5,-367.8314C179.5,-360.131 179.5,-350.9743 179.5,-342.4166"/>
<polygon fill="#000000" stroke="#000000" points="183.0001,-342.4132 179.5,-332.4133 176.0001,-342.4133 183.0001,-342.4132"/>
</g>
<!-- origin/master -->
<g id="node4" class="node">
<title>origin/master</title>
<path fill="#ffb6c1" stroke="#8b3a3a" d="M89,-259C89,-259 24,-259 24,-259 18,-259 12,-253 12,-247 12,-247 12,-235 12,-235 12,-229 18,-223 24,-223 24,-223 89,-223 89,-223 95,-223 101,-229 101,-235 101,-235 101,-247 101,-247 101,-253 95,-259 89,-259"/>
<text text-anchor="middle" x="56.5" y="-237.3" font-family="Times,serif" font-size="14.00" fill="#000000">origin/master</text>
</g>
<!-- origin/master&#45;&gt;a380b -->
<g id="edge3" class="edge">
<title>origin/master&#45;&gt;a380b</title>
<path fill="none" stroke="#000000" d="M56.5,-222.7079C56.5,-214.7096 56.5,-205.1287 56.5,-196.1859"/>
<polygon fill="#000000" stroke="#000000" points="60.0001,-196.1139 56.5,-186.114 53.0001,-196.114 60.0001,-196.1139"/>
</g>
<!-- b4c37 -->
<g id="node8" class="node">
<title>b4c37</title>
<path fill="#c6e2ff" stroke="#4a708b" d="M163,-112C163,-112 84,-112 84,-112 78,-112 72,-106 72,-100 72,-100 72,-86 72,-86 72,-80 78,-74 84,-74 84,-74 163,-74 163,-74 169,-74 175,-80 175,-86 175,-86 175,-100 175,-100 175,-106 169,-112 163,-112"/>
<text text-anchor="middle" x="123.5" y="-96.8" font-family="Times,serif" font-size="14.00" fill="#000000">b4c37</text>
<text text-anchor="middle" x="123.5" y="-81.8" font-family="Times,serif" font-size="14.00" fill="#000000">Second commit</text>
</g>
<!-- a380b&#45;&gt;b4c37 -->
<g id="edge6" class="edge">
<title>a380b&#45;&gt;b4c37</title>
<path fill="none" stroke="#000000" d="M73.7542,-147.9432C81.5087,-139.3784 90.7956,-129.1213 99.2345,-119.8007"/>
<polygon fill="#000000" stroke="#000000" points="101.9542,-122.0116 106.0714,-112.2495 96.7651,-117.3133 101.9542,-122.0116"/>
</g>
<!-- origin -->
<g id="node6" class="node">
<title>origin</title>
<path fill="#fff68f" stroke="#cdbe70" d="M71.5,-332C71.5,-332 41.5,-332 41.5,-332 35.5,-332 29.5,-326 29.5,-320 29.5,-320 29.5,-308 29.5,-308 29.5,-302 35.5,-296 41.5,-296 41.5,-296 71.5,-296 71.5,-296 77.5,-296 83.5,-302 83.5,-308 83.5,-308 83.5,-320 83.5,-320 83.5,-326 77.5,-332 71.5,-332"/>
<text text-anchor="middle" x="56.5" y="-310.3" font-family="Times,serif" font-size="14.00" fill="#000000">origin</text>
</g>
<!-- origin&#45;&gt;origin/master -->
<g id="edge4" class="edge">
<title>origin&#45;&gt;origin/master</title>
<path fill="none" stroke="#000000" d="M56.5,-295.9551C56.5,-287.8828 56.5,-278.1764 56.5,-269.1817"/>
<polygon fill="#000000" stroke="#000000" points="60.0001,-269.0903 56.5,-259.0904 53.0001,-269.0904 60.0001,-269.0903"/>
</g>
<!-- 76c16 -->
<g id="node7" class="node">
<title>76c16</title>
<path fill="#c6e2ff" stroke="#4a708b" d="M155.5,-38C155.5,-38 91.5,-38 91.5,-38 85.5,-38 79.5,-32 79.5,-26 79.5,-26 79.5,-12 79.5,-12 79.5,-6 85.5,0 91.5,0 91.5,0 155.5,0 155.5,0 161.5,0 167.5,-6 167.5,-12 167.5,-12 167.5,-26 167.5,-26 167.5,-32 161.5,-38 155.5,-38"/>
<text text-anchor="middle" x="123.5" y="-22.8" font-family="Times,serif" font-size="14.00" fill="#000000">76c16</text>
<text text-anchor="middle" x="123.5" y="-7.8" font-family="Times,serif" font-size="14.00" fill="#000000">First commit</text>
</g>
<!-- b4c37&#45;&gt;76c16 -->
<g id="edge5" class="edge">
<title>b4c37&#45;&gt;76c16</title>
<path fill="none" stroke="#000000" d="M123.5,-73.9432C123.5,-66.1493 123.5,-56.9538 123.5,-48.3381"/>
<polygon fill="#000000" stroke="#000000" points="127.0001,-48.2494 123.5,-38.2495 120.0001,-48.2495 127.0001,-48.2494"/>
</g>
<!-- 747bf&#45;&gt;b4c37 -->
<g id="edge7" class="edge">
<title>747bf&#45;&gt;b4c37</title>
<path fill="none" stroke="#000000" d="M173.2458,-147.9432C165.4913,-139.3784 156.2044,-129.1213 147.7655,-119.8007"/>
<polygon fill="#000000" stroke="#000000" points="150.2349,-117.3133 140.9286,-112.2495 145.0458,-122.0116 150.2349,-117.3133"/>
</g>
</g>
</svg>
